<?xml version="1.0" standalone="no"?>
<!DOCTYPE svg PUBLIC "-//W3C//DTD SVG 1.1//EN" "http://www.w3.org/Graphics/SVG/1.1/DTD/svg11.dtd" >
<svg xmlns="http://www.w3.org/2000/svg">
<metadata>
This is a custom SVG webfont generated by Font Squirrel.
Designer    : Hirwen HARENDAL
Foundry     : Arkandis Digital Foundry.
Foundry URL : http://arkandis.tuxfamily.org
</metadata>
<defs>
<font id="webfontntXmQMqk" horiz-adv-x="717" >
<font-face units-per-em="1000" ascent="750" descent="-250" />
<missing-glyph horiz-adv-x="325" />
<glyph unicode=" "  horiz-adv-x="325" />
<glyph unicode="&#x09;" horiz-adv-x="325" />
<glyph unicode="&#xa0;" horiz-adv-x="325" />
<glyph unicode="!" horiz-adv-x="234" d="M167 387l-13 -169h-77l-11 169v305h101v-305zM116 97q24 0 40 -16.5t16 -39.5t-16 -39t-40 -16t-40 16t-16 39t16 39.5t40 16.5z" />
<glyph unicode="&#x22;" horiz-adv-x="387" d="M318 377h-93v224h93v-224zM162 377h-93v224h93v-224z" />
<glyph unicode="#" horiz-adv-x="680" d="M664 407h-160l-32 -133h140v-88h-159l-47 -186h-95l44 186h-99l-53 -186h-93l46 186h-140v88h158l35 133h-143v86h158l51 187h94l-47 -187h109l47 187h94l-46 -187h138v-86zM412 407h-107l-35 -133h107z" />
<glyph unicode="$" horiz-adv-x="452" d="M265 -100h-69v86q-48 4 -151 45v115q78 -67 145 -67h6v227q-78 21 -116.5 63t-38.5 130q0 87 43.5 138.5t111.5 63.5v49h69v-48q66 -8 115 -37v-104q-38 27 -60.5 37t-54.5 11v-210q158 -53 158 -204q0 -91 -43.5 -141t-114.5 -63v-91zM196 425v165q-37 -26 -38 -79 q0 -65 38 -86zM265 272v-168q37 30 37 81q0 59 -37 87z" />
<glyph unicode="%" horiz-adv-x="849" d="M821 179q0 -78 -42 -135.5t-125 -57.5t-126 57.5t-43 135.5q0 49 18 92t57.5 72t93.5 30q81 0 124 -58.5t43 -135.5zM684 704l-425 -718h-94l425 718h94zM362 513q0 -81 -42 -137.5t-126 -56.5q-85 0 -124.5 55t-41.5 139q0 77 42 134t124 57q81 0 124.5 -57t43.5 -134z M722 179q0 47 -16.5 82t-51.5 35q-67 0 -69 -117q0 -48 16 -82t53 -34q64 0 68 116zM264 513q0 115 -70 115q-35 0 -51.5 -34t-16.5 -81t16.5 -82.5t51.5 -36.5q68 0 70 119z" />
<glyph unicode="&#x26;" horiz-adv-x="689" d="M689 0h-139l-58 63q-101 -77 -204 -77q-112 0 -184 63.5t-72 166.5q0 108 116 207q-18 23 -31 49q-12 30 -12 64q0 73 56 120q51 48 138 48q84 0 150 -40l-47 -80l-17 10q-10 6 -12.5 8t-9.5 5t-9.5 3.5t-10.5 1.5t-15 1h-19q-43 0 -66 -23q-29 -19 -29 -48q0 -18 16 -50 q14 -23 52 -64l214 -228q26 42 35 80t11 97h106q-9 -111 -87 -237zM432 124l-224 235q-64 -64 -64 -137q0 -66 43.5 -104.5t108.5 -38.5q44 0 69 9t67 36z" />
<glyph unicode="'" horiz-adv-x="216" d="M151 692q14 -51 14 -93q0 -68 -30 -131h-46v103q0 44 -23 121h85z" />
<glyph unicode="(" horiz-adv-x="279" d="M262 -125h-87q-135 219 -135 423q0 199 135 422h86q-59 -118 -85 -211t-27 -211q0 -116 26.5 -212t86.5 -211z" />
<glyph unicode=")" horiz-adv-x="280" d="M238 298q0 -101 -37.5 -214t-96.5 -209h-87q59 116 86.5 212.5t27.5 210.5t-28 211t-87 211h88q134 -220 134 -422z" />
<glyph unicode="*" horiz-adv-x="487" d="M456 404l-33 -58l-145 87v-162h-70v162l-142 -87l-34 58l152 84l-153 84l34 60l143 -91v163h70v-163l145 91l32 -60l-154 -84z" />
<glyph unicode="+" horiz-adv-x="605" d="M585 218h-233v-218h-97v218h-235v82h235v217h97v-217h233v-82z" />
<glyph unicode="," horiz-adv-x="250" d="M52 60q0 30 21 51.5t50 21.5t50 -21.5t21 -51.5q0 -64 -43.5 -112t-88.5 -48q23 11 42 37t19 50q-29 0 -50 21.5t-21 51.5z" />
<glyph unicode="-" horiz-adv-x="392" d="M323 193h-254v66h254v-66z" />
<glyph unicode="." horiz-adv-x="250" d="M52 60q0 30 21 51.5t50 21.5t50 -21.5t21 -51.5t-21 -51.5t-50 -21.5t-50 21.5t-21 51.5z" />
<glyph unicode="/" horiz-adv-x="350" d="M340 692l-232 -780h-97l231 780h98z" />
<glyph unicode="0" horiz-adv-x="590" d="M535 344q0 -49 -5.5 -94t-21.5 -94.5t-42 -86t-70 -60t-102 -23.5t-102.5 23.5t-70 60t-41.5 86t-21.5 94.5t-5.5 94q0 40 4 77t13 80t27 77.5t43.5 63.5t65 45.5t88.5 16.5q72 0 122 -34.5t74.5 -92.5t34.5 -114t10 -119zM418 344q0 268 -124 268q-29 0 -51 -13 t-35 -38.5t-21 -50t-11 -60t-4 -56.5t-1 -50q0 -24 0.5 -42t3 -48t7 -51.5t13.5 -46.5t22 -41t32.5 -26.5t44.5 -10.5q124 0 124 266z" />
<glyph unicode="1" horiz-adv-x="313" d="M235 0h-105v588l-48 -44l-51 63l101 85h103v-692z" />
<glyph unicode="2" horiz-adv-x="528" d="M480 0h-442v16q8 8 66 87l120 163q62 84 63 85q40 51 57 81t17 64q0 51 -33.5 81t-83.5 30q-84 0 -199 -63v113q124 47 197 47q104 0 170.5 -53t66.5 -150q0 -85 -72 -172l-184 -238h257v-91z" />
<glyph unicode="3" horiz-adv-x="540" d="M479 206q0 -111 -75 -165.5t-197 -54.5q-23 0 -43 3.5t-30.5 6.5t-35.5 13t-37 14v109l23 -14l18.5 -12t15.5 -8.5t18 -7.5l17 -4q11 -2 23 -2.5t29 -0.5q75 0 116 27t41 96q0 59 -38 87t-101 28h-50v92h53q52 0 86.5 24t34.5 70v2v2q0 47 -35 71.5t-89 24.5 q-25 0 -43.5 -3t-29 -6.5t-32.5 -11.5l-38 -14v99q11 4 31 10.5t30 9.5t25.5 6.5t31 5t33.5 1.5q99 0 166.5 -47t67.5 -137q0 -48 -28 -86.5t-79 -61.5q58 -22 89.5 -66.5t31.5 -99.5z" />
<glyph unicode="4" horiz-adv-x="557" d="M532 160h-96v-160h-110v160h-300v21l369 511h41v-441h96v-91zM326 251v217l-156 -217h156z" />
<glyph unicode="5" horiz-adv-x="531" d="M489 226q0 -116 -71.5 -178t-195.5 -62q-92 0 -184 33v110q86 -46 182 -46q69 0 110 36.5t41 106.5q0 67 -41.5 103.5t-109.5 36.5l-153 -1l2 327h368v-95h-268l-1 -133h68q116 0 183.5 -64.5t69.5 -173.5z" />
<glyph unicode="6" horiz-adv-x="565" d="M526 225q0 -105 -61.5 -172t-171.5 -67q-66 1 -115.5 25t-78 65t-42 89.5t-13.5 104.5v12q0 64 25 126t61 108t81.5 86.5t81.5 64t66 37.5l62 -56q-72 -40 -153 -116t-82 -112q46 40 112 42q110 0 169 -65.5t59 -171.5zM419 225q0 64 -32 105t-94 41q-67 0 -95.5 -42.5 t-28.5 -97.5q0 -56 34 -104.5t89 -48.5h1q62 0 94 41t32 106z" />
<glyph unicode="7" horiz-adv-x="492" d="M467 644l-253 -658l-108 40l225 571h-311v95h447v-48z" />
<glyph unicode="8" horiz-adv-x="578" d="M526 199q0 -105 -62.5 -159t-174.5 -54q-113 0 -176.5 54t-63.5 159q0 58 32 101.5t93 66.5q-109 45 -109 153q0 89 63.5 136.5t160.5 47.5t160 -47t64 -137q0 -100 -100 -152q110 -48 113 -169zM395 511q0 44 -31.5 72.5t-74.5 28.5q-49 0 -79 -26.5t-30 -74.5 q0 -49 29.5 -74.5t79.5 -25.5q44 0 75 27.5t31 72.5zM410 199q0 57 -32.5 88t-88.5 31q-57 0 -89.5 -30.5t-32.5 -88.5q0 -60 32 -90.5t90 -30.5q55 0 88 31.5t33 89.5z" />
<glyph unicode="9" horiz-adv-x="566" d="M38 465q0 105 61.5 172t171.5 67q66 -1 115.5 -25t78 -65t42 -89.5t13.5 -104.5v-12q0 -71 -32 -142t-82.5 -125.5t-95.5 -92.5t-88 -64l-69 54q56 29 140 112.5t85 119.5q-46 -40 -112 -42q-110 0 -169 65.5t-59 171.5zM145 465q0 -64 32 -105t94 -41q67 0 95.5 42.5 t28.5 97.5q0 56 -34 104.5t-89 48.5h-1q-62 0 -94 -41t-32 -106z" />
<glyph unicode=":" horiz-adv-x="250" d="M52 337q0 30 21 51.5t50 21.5t50 -21.5t21 -51.5t-21 -51.5t-50 -21.5t-50 21.5t-21 51.5zM52 60q0 30 21 51.5t50 21.5t50 -21.5t21 -51.5t-21 -51.5t-50 -21.5t-50 21.5t-21 51.5z" />
<glyph unicode=";" horiz-adv-x="250" d="M52 337q0 30 21 51.5t50 21.5t50 -21.5t21 -51.5t-21 -51.5t-50 -21.5t-50 21.5t-21 51.5zM52 60q0 30 21 51.5t50 21.5t50 -21.5t21 -51.5q0 -64 -43.5 -112t-88.5 -48q23 11 42 37t19 50q-29 0 -50 21.5t-21 51.5z" />
<glyph unicode="&#x3c;" horiz-adv-x="631" d="M588 38l-565 181v78l565 182v-88l-420 -133l420 -132v-88z" />
<glyph unicode="=" horiz-adv-x="704" d="M635 297h-566v77h566v-77zM635 142h-566v79h566v-79z" />
<glyph unicode="&#x3e;" horiz-adv-x="633" d="M610 219l-567 -181v88l421 132l-421 133v88l567 -182v-78z" />
<glyph unicode="?" horiz-adv-x="419" d="M392 534q0 -40 -17 -67t-55 -65l-40 -46q-33 -36 -39.5 -51t-6.5 -61v-67h-62l-46 81q-10 17 -10 35q0 8 2 16t7 17t9 15t14 16l13 14l16 15l15 15l42 49q39 36 43 80q0 38 -26 58t-66 21h-11q-22 0 -41.5 -8t-54.5 -33l-33 83q88 53 157 53q86 0 137.5 -44.5 t52.5 -125.5zM207 97q24 0 40 -16.5t16 -39.5t-16 -39t-40 -16t-40 16t-16 39t16 39.5t40 16.5z" />
<glyph unicode="@" horiz-adv-x="887" d="M858 303q0 -123 -80 -194.5t-222 -72.5v49q-48 -50 -125 -50q-92 0 -142 63t-50 150q0 89 49.5 152t142.5 64q91 0 125 -45v35h97v-328q98 23 102 175q0 111 -81.5 190.5t-211.5 82.5q-144 0 -236.5 -96t-92.5 -227q0 -146 94 -234t227 -88q113 0 219 78l60 -71 q-73 -52 -136 -76t-143 -25q-177 0 -299 116t-122 300q0 80 27 153.5t78.5 133t135 94.5t186.5 35q90 0 166 -30t126 -81t78 -116.5t28 -136.5zM546 248q0 54 -27 91q-29 31 -72 31q-47 0 -71 -34t-26 -88q0 -52 25.5 -87t72.5 -35q48 0 72 34.5t26 87.5z" />
<glyph unicode="A" d="M710 0h-132l-65 173h-309l-66 -173h-131l285 692h132zM476 265l-116 308l-119 -308h235z" />
<glyph unicode="B" horiz-adv-x="625" d="M588 199q0 -102 -68 -150.5t-188 -48.5h-263v692h243q232 0 239 -176q0 -46 -23 -85t-61 -57q121 -50 121 -175zM435 507q0 89 -132 93h-121v-188h133q119 0 120 95zM466 207q0 62 -35 87.5t-105 25.5h-144v-228h144q69 0 104.5 27t35.5 88z" />
<glyph unicode="C" horiz-adv-x="679" d="M641 57q-100 -71 -238 -71q-177 0 -270 99.5t-93 258.5t92.5 259.5t270.5 100.5q127 0 238 -68v-121q-53 50 -108 72t-130 22q-64 0 -111.5 -20.5t-74.5 -57.5t-40.5 -83t-14.5 -104q0 -119 58.5 -191.5t182.5 -72.5q73 0 127 21t111 69v-113z" />
<glyph unicode="D" horiz-adv-x="727" d="M684 347q0 -182 -100 -264.5t-308 -82.5h-207v692h207q209 0 308.5 -81.5t99.5 -263.5zM564 347q0 132 -65.5 191t-210.5 61h-106v-507h106q142 0 209 62.5t67 192.5z" />
<glyph unicode="E" horiz-adv-x="582" d="M552 0h-483v692h474v-94h-362v-184h346v-93h-346v-228h371v-93z" />
<glyph unicode="F" horiz-adv-x="519" d="M500 598h-319v-182h287v-94h-287v-322h-112v692h431v-94z" />
<glyph unicode="G" horiz-adv-x="732" d="M682 68q-118 -82 -276 -82q-180 0 -272.5 97.5t-92.5 260.5t92.5 261.5t273.5 98.5q140 0 254 -68v-119q-62 51 -117 71.5t-134 20.5q-130 0 -187 -69.5t-60 -195.5q0 -123 61.5 -193.5t190.5 -70.5q82 0 154 28v169h-163v91h276v-300z" />
<glyph unicode="H" horiz-adv-x="696" d="M627 0h-114v321h-331v-321h-113v692h113v-278h331v278h114v-692z" />
<glyph unicode="I" horiz-adv-x="251" d="M182 0h-113v692h113v-692z" />
<glyph unicode="J" horiz-adv-x="264" d="M195 52q0 -120 -46 -180.5t-163 -60.5h-46v95h42q61 0 80.5 37t19.5 109v640h113v-640z" />
<glyph unicode="K" horiz-adv-x="669" d="M670 0h-157l-331 318v-318h-113v692h113v-279l307 279h159l-369 -323z" />
<glyph unicode="L" horiz-adv-x="546" d="M537 0h-468v692h113v-599h355v-93z" />
<glyph unicode="M" horiz-adv-x="811" d="M742 0h-109v498l-225 -368l-226 368v-498h-113v692h122l217 -366l227 366h107v-692z" />
<glyph unicode="N" horiz-adv-x="692" d="M623 0h-116l-325 496v-496h-113v692h112l334 -511v511h108v-692z" />
<glyph unicode="O" horiz-adv-x="761" d="M719 343q0 -73 -20.5 -136t-60.5 -113t-106.5 -79t-152.5 -29q-85 0 -151.5 29.5t-106.5 80t-60.5 113.5t-20.5 134t20.5 134t60.5 114t106.5 81t151.5 30q86 0 153 -29.5t107 -80.5t60 -114t20 -135zM597 343q0 51 -12 96t-36.5 84t-68 61.5t-101.5 22.5t-101.5 -23 t-68 -62t-36 -84t-11.5 -95q0 -49 12 -94t36.5 -84t68 -62.5t100.5 -23.5q56 0 99.5 23t68.5 61.5t37.5 84t12.5 95.5z" />
<glyph unicode="P" horiz-adv-x="569" d="M540 481q0 -107 -65 -160t-187 -53h-109v-268h-110v692h222q120 0 184.5 -53t64.5 -158zM419 481q0 115 -128 118h-112v-236h112q60 0 93.5 30.5t34.5 87.5z" />
<glyph unicode="Q" horiz-adv-x="762" d="M597 341q0 52 -12 98t-36.5 85t-68 62t-101.5 23q-76 0 -127 -41t-70.5 -99t-19.5 -128q0 -66 20.5 -123.5t71.5 -99.5t125 -42q56 0 99 23t68.5 62t38 84.5t12.5 95.5zM718 -114l-40 -94q-45 0 -107.5 35t-108 80.5t-49.5 76.5q-14 0 -20.5 -1t-12.5 -1 q-85 0 -151.5 29.5t-107 80t-61 114t-20.5 135.5t20.5 135.5t60.5 115.5t106.5 82t151.5 30q168 0 254 -104t86 -259q0 -240 -183 -328v-1q0 -46 70.5 -86t111.5 -40z" />
<glyph unicode="R" horiz-adv-x="605" d="M360 312q53 -12 104.5 -72t82 -125t41.5 -115h-101q-15 37 -33.5 73.5t-53.5 89.5t-83.5 86t-102.5 34h-33v-283h-112v692h198q248 0 248 -202q0 -61 -40 -109t-115 -69zM394 490q0 107 -127 110h-86v-223h87q60 0 93 28.5t33 84.5z" />
<glyph unicode="S" horiz-adv-x="452" d="M423 195q0 -109 -61 -159t-153 -50q-54 0 -164 45v115q78 -67 145 -67q41 0 76.5 26t35.5 80q0 34 -13.5 57.5t-26 32t-36.5 20.5l-26 10q-81 22 -120 63.5t-39 130.5q0 100 56 152.5t137 52.5q78 0 146 -39v-104q-39 28 -61.5 38t-57.5 10q-40 0 -71 -23.5t-32 -74.5 q0 -46 14 -64.5t42 -29.5l28 -11q181 -50 181 -211z" />
<glyph unicode="T" horiz-adv-x="662" d="M648 598h-259v-598h-114v598h-261v94h634v-94z" />
<glyph unicode="U" horiz-adv-x="678" d="M616 262q0 -276 -275 -276q-278 0 -278 276v430h112v-418q0 -98 34.5 -146.5t131.5 -48.5q93 0 127.5 49.5t34.5 145.5v418h113v-430z" />
<glyph unicode="V" horiz-adv-x="718" d="M710 692l-349 -706l-352 706h128l224 -459l219 459h130z" />
<glyph unicode="W" horiz-adv-x="997" d="M978 692l-261 -706l-216 484l-221 -484l-261 706h125l160 -422l197 438l201 -432l151 416h125z" />
<glyph unicode="X" horiz-adv-x="673" d="M664 0h-133l-194 283l-201 -283h-132l263 371l-230 321h133l173 -247l174 247h132l-234 -332z" />
<glyph unicode="Y" horiz-adv-x="638" d="M639 692l-261 -365v-327h-118v327l-260 365h132l187 -274l188 274h132z" />
<glyph unicode="Z" horiz-adv-x="676" d="M650 0h-622v81l456 517h-444v94h598l2 -79l-455 -522h465v-91z" />
<glyph unicode="[" horiz-adv-x="297" d="M272 -125h-203v846h203v-82h-102v-684h102v-80z" />
<glyph unicode="\" horiz-adv-x="352" d="M340 -88h-98l-231 780h97z" />
<glyph unicode="]" horiz-adv-x="297" d="M228 -125h-202v80h101v684h-101v82h202v-846z" />
<glyph unicode="^" horiz-adv-x="645" d="M625 437l-113 -4l-190 169l-193 -169l-110 4l252 255h100z" />
<glyph unicode="_" horiz-adv-x="490" d="M495 -224h-505v67h505v-67z" />
<glyph unicode="`" horiz-adv-x="315" d="M285 508h-95l-156 152h118z" />
<glyph unicode="a" horiz-adv-x="550" d="M520 90q-2 -32 -34 -67t-66 -35q-31 0 -52.5 17.5t-21.5 40.5q-50 -58 -135 -58q-78 0 -122.5 39.5t-45.5 111.5q1 77 56 116t143 40q57 -2 104 -15v15q0 39 -30.5 59t-76.5 21q-50 0 -85 -11.5t-74 -42.5v94q59 50 166 50q100 -1 153.5 -45.5t53.5 -125.5v-188 q1 -30 33 -30q20 0 34 14zM346 200q-32 13 -94 15q-54 -1 -74 -17t-21 -55q0 -34 20.5 -50t54.5 -16q114 0 114 123z" />
<glyph unicode="b" horiz-adv-x="564" d="M68 692h108v-241q42 11 87 11q118 0 186 -64t68 -173q-2 -108 -67.5 -172.5t-181.5 -64.5q-138 0 -200 32v672zM176 362v-272q40 -14 83 -14q137 3 137 149q0 69 -35.5 108.5t-101.5 39.5q-48 -3 -83 -11z" />
<glyph unicode="c" horiz-adv-x="482" d="M437 19q-89 -31 -148 -31q-115 0 -178.5 64.5t-65.5 172.5q0 109 65.5 173t183.5 64q14 0 27.5 -1.5t23.5 -3t24 -5t21 -6.5l24 -7q16 -5 23 -7v-95l-23 9q-16 7 -20.5 8.5t-16 6t-17.5 5.5l-16 3q-11 2 -21.5 2.5t-24.5 1.5q-66 0 -99 -39t-33 -109q0 -146 132 -149 q25 0 44.5 3.5t26.5 5.5t33 13l35 16v-95z" />
<glyph unicode="d" horiz-adv-x="562" d="M494 692v-672q-91 -32 -200 -32q-116 0 -181.5 64.5t-67.5 172.5q0 109 68 173t186 64q45 0 87 -11v241h108zM386 362q-35 8 -83 11q-66 0 -101.5 -39.5t-35.5 -108.5q0 -146 137 -149q43 0 83 14v272z" />
<glyph unicode="e" horiz-adv-x="540" d="M494 206h-331v-2q0 -49 35.5 -87t92.5 -38q63 0 99 13.5t101 53.5v-96q-40 -26 -98 -44t-106 -18q-112 0 -177.5 64.5t-65.5 168.5q0 99 62 170t168 71q108 0 164 -57.5t56 -156.5v-42zM384 286q-6 87 -110 87q-80 0 -108 -87h218z" />
<glyph unicode="f" horiz-adv-x="308" d="M279 371h-69v-371h-113v371h-69v80h69v57q2 93 58 138t127 46h26v-88h-27q-71 0 -71 -89v-64h69v-80z" />
<glyph unicode="g" horiz-adv-x="477" d="M461 -79q0 -63 -70 -112t-166 -49q-95 0 -155.5 49t-60.5 113q0 82 84 127q-48 33 -48 70q0 30 17 47.5t44 19.5q-37 42 -37 104q1 69 52 119t120 51q31 0 64 -13h133v-70h-64q29 -37 29 -87q0 -72 -49 -121.5t-118 -49.5q-16 0 -43 5.5t-38 15.5h-4q-24 0 -25 -20 q0 -11 25 -23.5t48 -12.5q10 1 26 1q91 0 163.5 -44.5t72.5 -119.5zM312 292q0 35 -22 60t-54 25t-54 -25t-22 -60t22.5 -60t53.5 -25t53.5 25t22.5 60zM344 -79q0 37 -33.5 60t-86.5 23q-51 0 -80 -23t-29 -60t29 -59t80 -22q54 0 87 22t33 59z" />
<glyph unicode="h" horiz-adv-x="558" d="M495 0h-113v262q0 54 -19 80t-67 27q-50 0 -83.5 -33.5t-34.5 -88.5v-247h-109v692h109v-290q45 60 137 60q90 0 135 -54.5t45 -141.5v-266z" />
<glyph unicode="i" horiz-adv-x="246" d="M177 0h-108v451h108v-451zM123 691q24 0 40 -16.5t16 -39.5t-16 -39t-40 -16t-40 16t-16 39t16 39.5t40 16.5z" />
<glyph unicode="j" horiz-adv-x="246" d="M177 -74q0 -90 -34 -129q-26 -24 -72 -37l-39 75q16 6 28 23q9 16 9 68v525h108v-525zM123 691q24 0 40 -16.5t16 -39.5t-16 -39t-40 -16t-40 16t-16 39t16 39.5t40 16.5z" />
<glyph unicode="k" horiz-adv-x="548" d="M537 0h-143l-216 227v-227h-109v692h109v-437l209 196h141l-216 -206z" />
<glyph unicode="l" horiz-adv-x="246" d="M177 0h-108v692h108v-692z" />
<glyph unicode="m" horiz-adv-x="861" d="M798 0h-114v266q0 52 -17.5 78.5t-61.5 26.5q-56 0 -84.5 -31.5t-30.5 -86.5v-253h-115v266q0 53 -17.5 79t-62.5 26h-4q-47 0 -77.5 -33.5t-32.5 -84.5v-253h-112v450h112v-47q57 59 137 59q100 0 143 -81q63 81 166 81q89 0 130 -55t41 -139v-268z" />
<glyph unicode="n" horiz-adv-x="558" d="M495 0h-113v266q0 53 -19.5 79t-66.5 26q-52 0 -84.5 -32t-33.5 -86v-253h-109v450h109v-46q49 58 137 58q91 0 135.5 -53t44.5 -141v-268z" />
<glyph unicode="o" horiz-adv-x="557" d="M511 225q-1 -99 -63.5 -167.5t-169.5 -69.5q-105 1 -169 71t-65 166q1 103 63.5 170t170.5 67t170.5 -70.5t62.5 -166.5zM392 225q-1 59 -31.5 101.5t-82.5 43.5q-56 -1 -84 -41t-28 -101q0 -26 4.5 -49t16 -46.5t35 -37.5t56.5 -15q50 0 81.5 43t32.5 102z" />
<glyph unicode="p" horiz-adv-x="563" d="M67 -241v676q78 28 200 28q116 0 181.5 -64.5t67.5 -172.5q0 -109 -68 -173t-186 -64q-45 0 -87 11v-241h-108zM175 89q35 -8 83 -11q66 0 101.5 39.5t35.5 108.5t-36 108t-101 41q-54 0 -83 -10v-276z" />
<glyph unicode="q" horiz-adv-x="562" d="M494 -241h-108v241q-42 -11 -87 -11q-118 0 -186 64t-68 173q2 108 67.5 172.5t181.5 64.5q109 0 200 -28v-676zM386 89v276q-29 10 -83 10q-137 -3 -137 -149q0 -69 35.5 -108.5t101.5 -39.5q48 3 83 11z" />
<glyph unicode="r" horiz-adv-x="405" d="M335 325q-53 45 -92 45h-5q-27 -2 -43.5 -22.5t-16.5 -55.5v-292h-109v450h109v-42q31 47 89 50q28 0 61.5 -10.5t42.5 -21.5z" />
<glyph unicode="s" horiz-adv-x="417" d="M375 132q0 -75 -52 -109.5t-123 -34.5q-55 0 -150 30v102l39 -22q7 -4 26 -11.5t33 -8.5t39 -2q69 0 71 48q0 9 -1.5 16.5t-5.5 13.5l-7 8q-2 4 -9 7.5t-9.5 4.5t-11.5 4t-11 4l-18 5q-63 13 -97.5 44t-36.5 92q0 73 46 106t116 33q75 0 135 -27v-95q-10 4 -26 11.5 t-21 9.5t-14.5 5.5t-17.5 4t-19.5 1.5t-29.5 2q-54 0 -56 -46q0 -9 3 -16t5.5 -11.5t10 -8.5t10 -5.5t12 -4.5t10.5 -3l15 -4q70 -15 107.5 -46t37.5 -97z" />
<glyph unicode="t" horiz-adv-x="388" d="M35 377v24l100 179h65v-124h130v-79h-130v-237q0 -41 12 -54t51 -13h10q46 0 85 19v-87q-47 -19 -95 -19q-95 0 -134 33.5t-39 120.5v237h-55z" />
<glyph unicode="u" horiz-adv-x="561" d="M492 0h-113v47q-56 -59 -133 -59q-90 0 -136.5 54t-46.5 140v269h114v-267q0 -52 19.5 -78.5t67.5 -26.5q57 0 86 32t29 87v253h113v-451z" />
<glyph unicode="v" horiz-adv-x="528" d="M509 451l-245 -465l-244 465h106l138 -263l137 263h108z" />
<glyph unicode="w" horiz-adv-x="721" d="M693 451l-181 -465l-150 293l-148 -293l-186 465h103l97 -238l134 252l136 -252l93 238h102z" />
<glyph unicode="x" horiz-adv-x="526" d="M507 0h-115l-129 166l-133 -166h-114l186 237l-171 214h118l116 -150l117 150h116l-173 -218z" />
<glyph unicode="y" horiz-adv-x="514" d="M497 451l-270 -624q-16 -34 -52.5 -50.5t-70.5 -16.5l-36 72q15 0 39 10.5t31 27.5l72 166l-194 415h108l142 -302l122 302h109z" />
<glyph unicode="z" horiz-adv-x="499" d="M453 420l-234 -328h232v-92h-407v25l242 334h-231v92h398v-31z" />
<glyph unicode="{" horiz-adv-x="404" d="M382 -155h-40q-113 0 -157 36q-40 37 -40 140v109q0 61 -20 88q-21 24 -76 24h-39v82h39q53 0 76 26q20 23 20 85v110q0 106 41 141q41 34 156 35h40v-83h-42q-59 0 -71 -18q-12 -15 -14 -77v-113q0 -74 -24 -105q-13 -24 -54 -42q41 -16 54 -37q24 -30 24 -109v-114 q0 -57 14 -77q13 -16 71 -18h42v-83z" />
<glyph unicode="|" horiz-adv-x="226" d="M157 -224h-88v948h88v-948z" />
<glyph unicode="}" horiz-adv-x="401" d="M391 242h-38q-55 0 -76 -24q-20 -24 -20 -88v-109q0 -104 -42 -140q-41 -36 -154 -36h-39v83h42q57 0 68 17q16 19 16 78v114q0 76 21 108q13 21 57 38q-44 17 -57 42q-21 28 -21 105v113q0 61 -16 77q-9 16 -68 18h-42v83h39q113 0 154 -35q42 -33 42 -141v-110 q0 -62 20 -86q23 -25 76 -25h38v-82z" />
<glyph unicode="~" horiz-adv-x="675" d="M621 256q-44 -26 -90 -43q-38 -9 -83 -11q-50 0 -111 20q-60 22 -119 24q-35 0 -68 -12q-40 -12 -95 -46v77q41 23 88 41q46 12 86 12h10q64 0 119 -25q67 -19 99 -19q28 0 66 10q71 31 98 45v-73z" />
<glyph unicode="&#xa1;" horiz-adv-x="236" d="M168 0h-102v306l10 168h83l9 -168v-306zM118 691q24 0 40 -16.5t16 -39.5t-16 -39t-40 -16t-40 16t-16 39t16 39.5t40 16.5z" />
<glyph unicode="&#xa2;" horiz-adv-x="475" d="M445 20q-49 -28 -124 -39v-126h-67v129q-113 12 -168.5 86t-55.5 189q0 114 56 187.5t168 87.5v129h67v-130q75 -8 124 -36v-96q-36 25 -56.5 32.5t-67.5 13.5v-377q62 4 124 44v-94zM254 73v370q-59 -13 -84 -60t-27 -124q0 -160 111 -186z" />
<glyph unicode="&#xa3;" horiz-adv-x="514" d="M308 468l-42 -101h148v-80h-172l-70 -194h316v-93h-472l112 287h-87v80h111l41 98q3 6 13 31l12 34l14.5 31.5t17 32.5t19.5 28.5t24 27.5t28 21.5t34.5 18t40 10t47.5 4.5q33 0 115 -30l-43 -84q-3 1 -10 7.5t-19.5 10.5t-34.5 4q-18 0 -31 -4t-32 -17t-39 -43.5 t-41 -79.5z" />
<glyph unicode="&#xa4;" horiz-adv-x="621" d="M561 102l-71 -62l-89 89q-64 -32 -107 -32t-109 31l-87 -91l-68 63l93 92q-32 64 -32 104q0 44 34 103l-93 93l69 63l86 -91q58 29 107 29q45 0 107 -29l92 93l68 -64l-96 -94q31 -59 31 -103q0 -21 -5.5 -40t-9.5 -27t-18 -33zM405 296q0 48 -34 83.5t-79 35.5 q-44 0 -75.5 -35.5t-33.5 -83.5q0 -50 32 -86.5t79 -36.5q46 0 78.5 37.5t32.5 85.5z" />
<glyph unicode="&#xa5;" horiz-adv-x="572" d="M554 692l-142 -266h115v-72h-152l-33 -63v-14h185v-71h-183v-206h-115v206h-183v71h184l-2 14l-32 63h-150v72h115l-142 266h105l163 -310l160 310h107z" />
<glyph unicode="&#xa6;" horiz-adv-x="226" d="M157 303h-88v360h88v-360zM157 -162h-88v361h88v-361z" />
<glyph unicode="&#xa7;" horiz-adv-x="457" d="M424 289q0 -43 -19 -72.5t-58 -57.5q25 -22 35.5 -44t14.5 -55q-1 -73 -51 -111.5t-128 -38.5q-68 0 -149 29v93q76 -34 139 -37q32 0 56 15t24 47q0 25 -33.5 54.5t-68.5 45.5q-6 4 -30 19l-30 18l-24.5 17t-24 20t-17.5 20t-15.5 24.5t-7.5 27t-4 32.5q0 81 78 130 q-26 21 -37.5 42t-13.5 56q0 68 50.5 104.5t124.5 36.5q70 0 142 -29v-91q-4 2 -21.5 8.5t-22.5 8.5t-19 6.5t-22 6t-20.5 3.5t-24.5 3q-33 0 -56.5 -14.5t-23.5 -44.5q0 -36 79 -84l21 -9q85 -50 111 -75q46 -44 46 -104zM327 275q0 22 -13.5 42.5t-42.5 41t-44.5 30 t-46.5 26.5q-6 4 -9 5l-19 -20q-7 -7 -14.5 -22t-8.5 -32q0 -22 15 -44t44 -42t48 -30.5t49 -25.5l9 9q8 8 10.5 11t8 10.5t8 12.5t4.5 12.5t2 15.5z" />
<glyph unicode="&#xa8;" horiz-adv-x="382" d="M108 664q24 0 40 -16.5t16 -39.5t-16 -39t-40 -16t-40 16t-16 39t16 39.5t40 16.5zM267 664q24 0 40 -16.5t16 -39.5t-16 -39t-40 -16t-40 16t-16 39t16 39.5t40 16.5z" />
<glyph unicode="&#xa9;" horiz-adv-x="644" d="M609 299q0 -122 -79.5 -210.5t-208.5 -88.5q-116 0 -202 82.5t-86 216.5q0 121 79.5 210t208.5 89q128 0 208 -89t80 -210zM540 299q0 99 -59.5 167.5t-159.5 71.5q-86 0 -153 -67t-67 -171q0 -97 62.5 -168t157.5 -71q90 0 154.5 68.5t64.5 169.5zM441 140 q-49 -27 -111 -27q-85 0 -135 49t-51 137q0 88 51 136.5t135 48.5q61 0 111 -24v-73q-28 18 -48.5 24t-58.5 6q-49 0 -76 -31t-27 -87q0 -58 28.5 -89t79.5 -31q49 0 102 29v-68z" />
<glyph unicode="&#xaa;" horiz-adv-x="443" d="M379 282h-97v27q-18 -16 -46.5 -26t-52.5 -10q-58 0 -95.5 27.5t-38.5 79.5q0 117 176 117h57q-4 43 -80 43q-22 0 -50 -7q-33 -9 -75 -25v80q17 6 72 18q31 6 63 6q167 0 167 -148v-182zM379 189h-317v72h317v-72zM282 429l-47 1q-20 0 -31.5 -1t-26.5 -5t-22.5 -13.5 t-7.5 -25.5q0 -37 55 -37q37 0 58.5 22t21.5 59z" />
<glyph unicode="&#xab;" horiz-adv-x="496" d="M438 57l-230 164v40l230 165v-96l-116 -88l116 -90v-95zM255 57l-229 164v40l229 165v-96l-115 -88l115 -90v-95z" />
<glyph unicode="&#xac;" horiz-adv-x="677" d="M608 115h-106v146h-470v86h576v-232z" />
<glyph unicode="&#xad;" horiz-adv-x="392" d="M323 193h-254v66h254v-66z" />
<glyph unicode="&#xae;" horiz-adv-x="644" d="M609 299q0 -124 -85 -211.5t-203 -87.5q-129 0 -208.5 89t-79.5 210q0 131 87 215t201 84t201 -84t87 -215zM539 300q0 99 -59 167t-159 71q-86 0 -150 -67t-64 -171q0 -98 60.5 -168.5t153.5 -70.5q90 0 154 64t64 175zM478 133h-79l-50 85q-16 31 -25.5 40.5 t-34.5 11.5h-13v-137h-78v341h116q67 0 104.5 -21.5t37.5 -79.5q0 -66 -66 -87q14 -12 27 -30.5t19 -30t21.5 -46t20.5 -46.5zM372 373q0 27 -15.5 35t-45.5 9h-35v-89h35q29 0 45 8.5t16 36.5z" />
<glyph unicode="&#xaf;" horiz-adv-x="417" d="M348 555h-279v59h279v-59z" />
<glyph unicode="&#xb0;" horiz-adv-x="353" d="M300 500q0 -47 -36 -79.5t-88 -32.5t-89 33t-37 79t37 79t89 33t88 -32.5t36 -79.5zM211 499q0 17 -10.5 29t-24.5 12q-16 0 -25.5 -11.5t-9.5 -29.5t9.5 -29.5t25.5 -11.5q14 0 24.5 12t10.5 29z" />
<glyph unicode="&#xb1;" horiz-adv-x="652" d="M614 279h-235v-149h-105v149h-236v91h236v147h105v-147h235v-91zM614 0h-576v92h576v-92z" />
<glyph unicode="&#xb2;" horiz-adv-x="304" d="M279 610q0 -10 -4 -21t-13 -26t-16.5 -26t-23.5 -30l-22 -28q-7 -9 -25.5 -30.5t-23.5 -26.5l129 1v-73h-261v13q3 3 23 26l42 49l42 50q20 24 21 25q31 44 38 64q0 23 -17.5 36.5t-43.5 13.5q-42 0 -102 -51v91q74 38 117 38q62 0 100.5 -25t39.5 -70z" />
<glyph unicode="&#xb3;" horiz-adv-x="315" d="M281 452q0 -57 -44.5 -85t-117.5 -28q-18 0 -28 3t-25 12.5t-26 14.5v57q9 -2 32.5 -12t47.5 -10q36 0 50 9.5t14 34.5q0 56 -59 56h-32v59h34q43 20 43 33v3q0 37 -48 37q-16 0 -26.5 -5t-23.5 -15.5t-25 -16.5v79q11 4 27 12.5t27 11.5t29 3q60 0 100.5 -23.5 t40.5 -69.5q0 -52 -83 -75q46 -11 69.5 -34t23.5 -51z" />
<glyph unicode="&#xb4;" horiz-adv-x="314" d="M281 660l-156 -152h-95l132 152h119z" />
<glyph unicode="&#xb5;" horiz-adv-x="582" d="M557 4q-29 -25 -70 -25q-57 0 -86 52q-46 -52 -117 -52q-63 0 -105 45v-196h-110v623h110v-281q0 -99 99 -99q106 0 106 114v266h108v-345q0 -30 18 -30h12q2 0 7 1.5t6 2.5t8.5 5.5t13.5 8.5v-90z" />
<glyph unicode="&#xb6;" horiz-adv-x="515" d="M446 -80h-94v606h-45v-606h-92v328q-83 7 -135 49q-55 51 -55 128q0 81 61 130q60 46 157 46h203v-681z" />
<glyph unicode="&#xb7;" horiz-adv-x="223" d="M108 343q24 0 40 -16.5t16 -39.5t-16 -39t-40 -16t-40 16t-16 39t16 39.5t40 16.5z" />
<glyph unicode="&#xb8;" horiz-adv-x="291" d="M144 -160q-33 0 -50 5t-50 22l17 63q34 -20 51 -20q30 0 30 18q0 8 -21.5 34t-21.5 38v45h77v-45q0 -11 24.5 -37.5t27.5 -40.5q0 -1 0.5 -3.5t0.5 -3.5q0 -26 -23 -50t-62 -25z" />
<glyph unicode="&#xb9;" horiz-adv-x="188" d="M150 350h-84v287l-24 -23l-26 32l51 50h83v-346z" />
<glyph unicode="&#xba;" horiz-adv-x="455" d="M403 443q0 -79 -45 -124.5t-130 -45.5t-132 45.5t-47 124.5t47 124t132 45t129.5 -45t45.5 -124zM386 189h-317v72h317v-72zM304 443q0 43 -19.5 70t-56.5 27q-36 0 -57 -28t-21 -69q0 -42 21 -69t57 -27q35 0 55.5 27.5t20.5 68.5z" />
<glyph unicode="&#xbb;" horiz-adv-x="494" d="M469 221l-232 -164v95l117 90l-117 88v96l232 -165v-40zM287 221l-230 -164v95l116 90l-116 88v96l230 -165v-40z" />
<glyph unicode="&#xbc;" horiz-adv-x="772" d="M184 350h-84v287l-24 -23l-26 32l51 50h83v-346zM722 70h-48v-70h-88v70h-156v17l211 259h33v-202h48v-74zM586 144v73l-60 -73h60zM644 704l-432 -718h-106l430 718h108z" />
<glyph unicode="&#xbd;" horiz-adv-x="806" d="M174 350h-84v287l-24 -23l-26 32l51 50h83v-346zM755 260q0 -10 -4 -21t-13 -26t-16.5 -26t-23.5 -30l-22 -28q-7 -9 -25.5 -30.5t-23.5 -26.5l129 1v-73h-261v13q3 3 23 26l42 49l42 50q20 24 21 25q31 44 38 64q0 23 -17.5 36.5t-43.5 13.5q-42 0 -102 -51v91 q74 38 117 38q62 0 100.5 -25t39.5 -70zM643 704l-431 -718h-106l430 718h107z" />
<glyph unicode="&#xbe;" horiz-adv-x="838" d="M291 452q0 -57 -44.5 -85t-117.5 -28q-18 0 -28 3t-25 12.5t-26 14.5v57q9 -2 32.5 -12t47.5 -10q36 0 50 9.5t14 34.5q0 56 -59 56h-32v59h34q43 20 43 33v3q0 37 -48 37q-16 0 -26.5 -5t-23.5 -15.5t-25 -16.5v79q11 4 27 12.5t27 11.5t29 3q60 0 100.5 -23.5 t40.5 -69.5q0 -52 -83 -75q46 -11 69.5 -34t23.5 -51zM788 70h-48v-70h-88v70h-156v17l211 259h33v-202h48v-74zM652 144v73l-60 -73h60zM707 704l-430 -718h-107l432 718h105z" />
<glyph unicode="&#xbf;" horiz-adv-x="421" d="M398 41q-85 -55 -179 -55q-88 0 -140 44t-52 125q0 29 11 54t23.5 40t38.5 41l39 46q19 18 27 32t15 41q1 10 1 37v64h108v-78q0 -48 -14 -77t-50 -65l-76 -91q-9 -18 -9 -40q0 -37 25 -56q23 -24 67 -24q74 0 165 69v-107zM236 692q24 0 40 -16.5t16 -39.5t-16 -39 t-40 -16t-40 16t-16 39t16 39.5t40 16.5z" />
<glyph unicode="&#xc0;" d="M484 762h-95l-156 152h118zM710 0h-132l-65 173h-309l-66 -173h-131l285 692h132zM476 265l-116 308l-119 -308h235z" />
<glyph unicode="&#xc1;" d="M484 914l-156 -152h-95l132 152h119zM710 0h-132l-65 173h-309l-66 -173h-131l285 692h132zM476 265l-116 308l-119 -308h235z" />
<glyph unicode="&#xc2;" d="M516 762h-90l-68 76l-66 -76h-92l118 152h80zM710 0h-132l-65 173h-309l-66 -173h-131l285 692h132zM476 265l-116 308l-119 -308h235z" />
<glyph unicode="&#xc3;" d="M509 876q0 -47 -24.5 -80t-71.5 -34q-30 0 -67 20l-45 29q-10 -1 -10 -22q0 -3 0.5 -12.5t0.5 -14.5h-84q0 46 24.5 80t70.5 34q38 0 69 -20l44 -28q10 2 10 30v18h83zM710 0h-132l-65 173h-309l-66 -173h-131l285 692h132zM476 265l-116 308l-119 -308h235z" />
<glyph unicode="&#xc4;" d="M279 873q24 0 40 -16.5t16 -39.5t-16 -39t-40 -16t-40 16t-16 39t16 39.5t40 16.5zM438 873q24 0 40 -16.5t16 -39.5t-16 -39t-40 -16t-40 16t-16 39t16 39.5t40 16.5zM710 0h-132l-65 173h-309l-66 -173h-131l285 692h132zM476 265l-116 308l-119 -308h235z" />
<glyph unicode="&#xc5;" d="M484 817q0 -47 -36.5 -79.5t-87.5 -32.5q-53 0 -89.5 32.5t-36.5 79.5t37 79.5t89 32.5q51 0 87.5 -33t36.5 -79zM394 816q0 16 -10 28t-24 12q-15 0 -25.5 -11.5t-10.5 -28.5t10.5 -29t25.5 -12q14 0 24 12t10 29zM710 0h-132l-65 173h-309l-66 -173h-131l285 692h132z M476 265l-116 308l-119 -308h235z" />
<glyph unicode="&#xc6;" horiz-adv-x="968" d="M938 0h-488v174h-240l-78 -174h-128l315 692h611v-94h-366v-184h351v-93h-351v-228h374v-93zM450 265v338h-41l-155 -338h196z" />
<glyph unicode="&#xc7;" horiz-adv-x="679" d="M395 -204q-33 0 -50 5t-50 22l17 63q34 -20 51 -20q30 0 30 18q0 8 -21.5 33.5t-21.5 38.5v33q-152 15 -231 112t-79 243q0 159 92.5 259.5t270.5 100.5q127 0 238 -68v-121q-53 50 -108 72t-130 22q-64 0 -111.5 -20.5t-74.5 -57.5t-40.5 -83t-14.5 -104 q0 -119 58.5 -191.5t182.5 -72.5q73 0 127 21t111 69v-113q-89 -63 -214 -70v-31q0 -11 24.5 -37.5t27.5 -40.5q0 -1 0.5 -3.5t0.5 -3.5q0 -26 -23 -50t-62 -25z" />
<glyph unicode="&#xc8;" horiz-adv-x="582" d="M436 762h-95l-156 152h118zM552 0h-483v692h474v-94h-362v-184h346v-93h-346v-228h371v-93z" />
<glyph unicode="&#xc9;" horiz-adv-x="582" d="M436 914l-156 -152h-95l132 152h119zM552 0h-483v692h474v-94h-362v-184h346v-93h-346v-228h371v-93z" />
<glyph unicode="&#xca;" horiz-adv-x="582" d="M468 762h-90l-68 76l-66 -76h-92l118 152h80zM552 0h-483v692h474v-94h-362v-184h346v-93h-346v-228h371v-93z" />
<glyph unicode="&#xcb;" horiz-adv-x="582" d="M231 873q24 0 40 -16.5t16 -39.5t-16 -39t-40 -16t-40 16t-16 39t16 39.5t40 16.5zM390 873q24 0 40 -16.5t16 -39.5t-16 -39t-40 -16t-40 16t-16 39t16 39.5t40 16.5zM552 0h-483v692h474v-94h-362v-184h346v-93h-346v-228h371v-93z" />
<glyph unicode="&#xcc;" horiz-adv-x="251" d="M251 762h-95l-156 152h118zM182 0h-113v692h113v-692z" />
<glyph unicode="&#xcd;" horiz-adv-x="251" d="M251 914l-156 -152h-95l132 152h119zM182 0h-113v692h113v-692z" />
<glyph unicode="&#xce;" horiz-adv-x="251" d="M284 762h-92l-66 76l-68 -76h-90l118 152h80zM182 0h-113v692h113v-692z" />
<glyph unicode="&#xcf;" horiz-adv-x="251" d="M46 873q24 0 40 -16.5t16 -39.5t-16 -39t-40 -16t-40 16t-16 39t16 39.5t40 16.5zM205 873q24 0 40 -16.5t16 -39.5t-16 -39t-40 -16t-40 16t-16 39t16 39.5t40 16.5zM182 0h-113v692h113v-692z" />
<glyph unicode="&#xd0;" horiz-adv-x="779" d="M737 346q0 -180 -101.5 -263t-308.5 -83h-208v316h-99v82h99v294h208q208 0 308.5 -82.5t101.5 -263.5zM614 347q0 132 -65.5 191t-210.5 61h-107v-201h165v-82h-165v-224h107q145 0 210.5 61.5t65.5 193.5z" />
<glyph unicode="&#xd1;" horiz-adv-x="692" d="M496 876q0 -47 -24 -80t-72 -34q-33 0 -66 20l-46 29q-10 -1 -10 -22q0 -3 1 -12.5t1 -14.5h-84q0 47 24 80.5t70 33.5q37 0 70 -20l44 -28q10 2 10 30v18h82zM623 0h-116l-325 496v-496h-113v692h112l334 -511v511h108v-692z" />
<glyph unicode="&#xd2;" horiz-adv-x="761" d="M505 762h-95l-156 152h118zM719 343q0 -73 -20.5 -136t-60.5 -113t-106.5 -79t-152.5 -29q-85 0 -151.5 29.5t-106.5 80t-60.5 113.5t-20.5 134t20.5 134t60.5 114t106.5 81t151.5 30q86 0 153 -29.5t107 -80.5t60 -114t20 -135zM597 343q0 51 -12 96t-36.5 84t-68 61.5 t-101.5 22.5t-101.5 -23t-68 -62t-36 -84t-11.5 -95q0 -49 12 -94t36.5 -84t68 -62.5t100.5 -23.5q56 0 99.5 23t68.5 61.5t37.5 84t12.5 95.5z" />
<glyph unicode="&#xd3;" horiz-adv-x="761" d="M505 914l-156 -152h-95l132 152h119zM719 343q0 -73 -20.5 -136t-60.5 -113t-106.5 -79t-152.5 -29q-85 0 -151.5 29.5t-106.5 80t-60.5 113.5t-20.5 134t20.5 134t60.5 114t106.5 81t151.5 30q86 0 153 -29.5t107 -80.5t60 -114t20 -135zM597 343q0 51 -12 96t-36.5 84 t-68 61.5t-101.5 22.5t-101.5 -23t-68 -62t-36 -84t-11.5 -95q0 -49 12 -94t36.5 -84t68 -62.5t100.5 -23.5q56 0 99.5 23t68.5 61.5t37.5 84t12.5 95.5z" />
<glyph unicode="&#xd4;" horiz-adv-x="761" d="M538 762h-92l-66 76l-68 -76h-90l118 152h80zM719 343q0 -73 -20.5 -136t-60.5 -113t-106.5 -79t-152.5 -29q-85 0 -151.5 29.5t-106.5 80t-60.5 113.5t-20.5 134t20.5 134t60.5 114t106.5 81t151.5 30q86 0 153 -29.5t107 -80.5t60 -114t20 -135zM597 343q0 51 -12 96 t-36.5 84t-68 61.5t-101.5 22.5t-101.5 -23t-68 -62t-36 -84t-11.5 -95q0 -49 12 -94t36.5 -84t68 -62.5t100.5 -23.5q56 0 99.5 23t68.5 61.5t37.5 84t12.5 95.5z" />
<glyph unicode="&#xd5;" horiz-adv-x="761" d="M530 876q0 -47 -24.5 -80t-71.5 -34q-30 0 -67 20l-45 29q-10 -1 -10 -22q0 -3 0.5 -12.5t0.5 -14.5h-84q0 46 24.5 80t70.5 34q38 0 69 -20l44 -28q10 2 10 30v18h83zM719 343q0 -73 -20.5 -136t-60.5 -113t-106.5 -79t-152.5 -29q-85 0 -151.5 29.5t-106.5 80 t-60.5 113.5t-20.5 134t20.5 134t60.5 114t106.5 81t151.5 30q86 0 153 -29.5t107 -80.5t60 -114t20 -135zM597 343q0 51 -12 96t-36.5 84t-68 61.5t-101.5 22.5t-101.5 -23t-68 -62t-36 -84t-11.5 -95q0 -49 12 -94t36.5 -84t68 -62.5t100.5 -23.5q56 0 99.5 23t68.5 61.5 t37.5 84t12.5 95.5z" />
<glyph unicode="&#xd6;" horiz-adv-x="761" d="M300 873q24 0 40 -16.5t16 -39.5t-16 -39t-40 -16t-40 16t-16 39t16 39.5t40 16.5zM459 873q24 0 40 -16.5t16 -39.5t-16 -39t-40 -16t-40 16t-16 39t16 39.5t40 16.5zM719 343q0 -73 -20.5 -136t-60.5 -113t-106.5 -79t-152.5 -29q-85 0 -151.5 29.5t-106.5 80 t-60.5 113.5t-20.5 134t20.5 134t60.5 114t106.5 81t151.5 30q86 0 153 -29.5t107 -80.5t60 -114t20 -135zM597 343q0 51 -12 96t-36.5 84t-68 61.5t-101.5 22.5t-101.5 -23t-68 -62t-36 -84t-11.5 -95q0 -49 12 -94t36.5 -84t68 -62.5t100.5 -23.5q56 0 99.5 23t68.5 61.5 t37.5 84t12.5 95.5z" />
<glyph unicode="&#xd7;" horiz-adv-x="575" d="M545 85l-64 -60l-195 175l-193 -175l-63 60l191 173l-191 175l63 59l193 -175l194 175l65 -58l-190 -176z" />
<glyph unicode="&#xd8;" horiz-adv-x="776" d="M734 669l-75 -89q63 -85 67 -236q0 -72 -21 -135t-62 -112.5t-107.5 -78t-151.5 -28.5q-120 0 -208 66l-73 -88l-62 54l77 89q-70 83 -70 233q0 72 21 135t61.5 113t108 79t154.5 29q128 0 207 -67l74 89zM526 561q-62 47 -137 47q-58 0 -102 -22.5t-68.5 -61.5t-36 -84 t-11.5 -96q0 -95 22 -151zM604 344q0 78 -21 152l-333 -363q64 -51 139 -51q58 0 101.5 22.5t67.5 61.5t35 83t11 95z" />
<glyph unicode="&#xd9;" horiz-adv-x="678" d="M465 762h-95l-156 152h118zM616 262q0 -276 -275 -276q-278 0 -278 276v430h112v-418q0 -98 34.5 -146.5t131.5 -48.5q93 0 127.5 49.5t34.5 145.5v418h113v-430z" />
<glyph unicode="&#xda;" horiz-adv-x="678" d="M465 914l-156 -152h-95l132 152h119zM616 262q0 -276 -275 -276q-278 0 -278 276v430h112v-418q0 -98 34.5 -146.5t131.5 -48.5q93 0 127.5 49.5t34.5 145.5v418h113v-430z" />
<glyph unicode="&#xdb;" horiz-adv-x="678" d="M498 762h-92l-66 76l-68 -76h-90l118 152h80zM616 262q0 -276 -275 -276q-278 0 -278 276v430h112v-418q0 -98 34.5 -146.5t131.5 -48.5q93 0 127.5 49.5t34.5 145.5v418h113v-430z" />
<glyph unicode="&#xdc;" horiz-adv-x="678" d="M260 873q24 0 40 -16.5t16 -39.5t-16 -39t-40 -16t-40 16t-16 39t16 39.5t40 16.5zM419 873q24 0 40 -16.5t16 -39.5t-16 -39t-40 -16t-40 16t-16 39t16 39.5t40 16.5zM616 262q0 -276 -275 -276q-278 0 -278 276v430h112v-418q0 -98 34.5 -146.5t131.5 -48.5 q93 0 127.5 49.5t34.5 145.5v418h113v-430z" />
<glyph unicode="&#xdd;" horiz-adv-x="638" d="M445 914l-156 -152h-95l132 152h119zM639 692l-261 -365v-327h-118v327l-260 365h132l187 -274l188 274h132z" />
<glyph unicode="&#xde;" horiz-adv-x="570" d="M540 363q0 -106 -64 -159q-63 -53 -185 -54h-112v-150h-110v692h110v-120h110q124 0 190 -52q61 -55 61 -157zM419 363q0 54 -33 84q-31 31 -95 31h-112v-233h112q63 0 94 31q32 27 34 87z" />
<glyph unicode="&#xdf;" horiz-adv-x="588" d="M549 159q0 -91 -57.5 -132t-153.5 -41q-59 0 -137 27v100l29 -9q19 -5 25 -6l19 -6q13 -3 21.5 -4t21.5 -2t28 -2h11q41 0 57 12.5t16 46.5v10q0 17 -6.5 30t-11.5 18.5t-23.5 18t-22.5 15.5l-39 22q-88 55 -88 138q0 127 140 157q-11 70 -93 70q-97 0 -100 -104v-517 h-116v518q0 100 57.5 150t160.5 52q96 0 149.5 -64t57.5 -166q-29 -2 -49.5 -6t-43 -12.5t-34.5 -26t-12 -42.5q0 -17 16 -36t29 -27l27 -17q63 -39 92.5 -73.5t29.5 -91.5z" />
<glyph unicode="&#xe0;" horiz-adv-x="550" d="M407 525h-95l-156 152h118zM520 90q-2 -32 -34 -67t-66 -35q-31 0 -52.5 17.5t-21.5 40.5q-50 -58 -135 -58q-78 0 -122.5 39.5t-45.5 111.5q1 77 56 116t143 40q57 -2 104 -15v15q0 39 -30.5 59t-76.5 21q-50 0 -85 -11.5t-74 -42.5v94q59 50 166 50q100 -1 153.5 -45.5 t53.5 -125.5v-188q1 -30 33 -30q20 0 34 14zM346 200q-32 13 -94 15q-54 -1 -74 -17t-21 -55q0 -34 20.5 -50t54.5 -16q114 0 114 123z" />
<glyph unicode="&#xe1;" horiz-adv-x="550" d="M407 677l-156 -152h-95l132 152h119zM520 90q-2 -32 -34 -67t-66 -35q-31 0 -52.5 17.5t-21.5 40.5q-50 -58 -135 -58q-78 0 -122.5 39.5t-45.5 111.5q1 77 56 116t143 40q57 -2 104 -15v15q0 39 -30.5 59t-76.5 21q-50 0 -85 -11.5t-74 -42.5v94q59 50 166 50 q100 -1 153.5 -45.5t53.5 -125.5v-188q1 -30 33 -30q20 0 34 14zM346 200q-32 13 -94 15q-54 -1 -74 -17t-21 -55q0 -34 20.5 -50t54.5 -16q114 0 114 123z" />
<glyph unicode="&#xe2;" horiz-adv-x="550" d="M440 525h-92l-66 76l-68 -76h-90l118 152h80zM520 90q-2 -32 -34 -67t-66 -35q-31 0 -52.5 17.5t-21.5 40.5q-50 -58 -135 -58q-78 0 -122.5 39.5t-45.5 111.5q1 77 56 116t143 40q57 -2 104 -15v15q0 39 -30.5 59t-76.5 21q-50 0 -85 -11.5t-74 -42.5v94q59 50 166 50 q100 -1 153.5 -45.5t53.5 -125.5v-188q1 -30 33 -30q20 0 34 14zM346 200q-32 13 -94 15q-54 -1 -74 -17t-21 -55q0 -34 20.5 -50t54.5 -16q114 0 114 123z" />
<glyph unicode="&#xe3;" horiz-adv-x="550" d="M432 639q0 -47 -24.5 -80t-71.5 -34q-30 0 -67 20l-45 29q-10 -1 -10 -22q0 -3 0.5 -12.5t0.5 -14.5h-84q0 46 24.5 80t70.5 34q38 0 69 -20l44 -28q10 2 10 30v18h83zM520 90q-2 -32 -34 -67t-66 -35q-31 0 -52.5 17.5t-21.5 40.5q-50 -58 -135 -58q-78 0 -122.5 39.5 t-45.5 111.5q1 77 56 116t143 40q57 -2 104 -15v15q0 39 -30.5 59t-76.5 21q-50 0 -85 -11.5t-74 -42.5v94q59 50 166 50q100 -1 153.5 -45.5t53.5 -125.5v-188q1 -30 33 -30q20 0 34 14zM346 200q-32 13 -94 15q-54 -1 -74 -17t-21 -55q0 -34 20.5 -50t54.5 -16 q114 0 114 123z" />
<glyph unicode="&#xe4;" horiz-adv-x="550" d="M202 636q24 0 40 -16.5t16 -39.5t-16 -39t-40 -16t-40 16t-16 39t16 39.5t40 16.5zM361 636q24 0 40 -16.5t16 -39.5t-16 -39t-40 -16t-40 16t-16 39t16 39.5t40 16.5zM520 90q-2 -32 -34 -67t-66 -35q-31 0 -52.5 17.5t-21.5 40.5q-50 -58 -135 -58q-78 0 -122.5 39.5 t-45.5 111.5q1 77 56 116t143 40q57 -2 104 -15v15q0 39 -30.5 59t-76.5 21q-50 0 -85 -11.5t-74 -42.5v94q59 50 166 50q100 -1 153.5 -45.5t53.5 -125.5v-188q1 -30 33 -30q20 0 34 14zM346 200q-32 13 -94 15q-54 -1 -74 -17t-21 -55q0 -34 20.5 -50t54.5 -16 q114 0 114 123z" />
<glyph unicode="&#xe5;" horiz-adv-x="550" d="M406 637q0 -47 -36 -79.5t-88 -32.5t-89 32.5t-37 79.5q0 46 37.5 79t88.5 33q52 0 88 -32.5t36 -79.5zM318 636q0 17 -10.5 28.5t-25.5 11.5q-14 0 -24 -12t-10 -28q0 -17 9.5 -29t24.5 -12t25.5 12t10.5 29zM520 90q-2 -32 -34 -67t-66 -35q-31 0 -52.5 17.5 t-21.5 40.5q-50 -58 -135 -58q-78 0 -122.5 39.5t-45.5 111.5q1 77 56 116t143 40q57 -2 104 -15v15q0 39 -30.5 59t-76.5 21q-50 0 -85 -11.5t-74 -42.5v94q59 50 166 50q100 -1 153.5 -45.5t53.5 -125.5v-188q1 -30 33 -30q20 0 34 14zM346 200q-32 13 -94 15 q-54 -1 -74 -17t-21 -55q0 -34 20.5 -50t54.5 -16q114 0 114 123z" />
<glyph unicode="&#xe6;" horiz-adv-x="860" d="M813 211h-347q3 -133 141 -135q64 0 108 14t97 50v-98q-82 -54 -210 -54q-58 0 -111 22t-87 62q-30 -43 -70 -63.5t-102 -20.5q-88 0 -139 37t-51 112q0 157 235 157h78q-2 38 -31 57.5t-73 21.5q-54 0 -85.5 -8t-86.5 -32v96q118 33 180 33q46 0 91.5 -17.5t72.5 -46.5 q31 27 77.5 45.5t87.5 18.5q111 0 168 -52t57 -149v-50zM701 294q-3 43 -30.5 61t-81.5 18q-50 0 -74.5 -17.5t-44.5 -61.5h231zM355 210l-50 1q-27 0 -41.5 -0.5t-37.5 -4t-35 -10.5t-21.5 -20.5t-9.5 -33.5q0 -32 23.5 -49t59.5 -17q53 0 82.5 39.5t29.5 94.5z" />
<glyph unicode="&#xe7;" horiz-adv-x="482" d="M278 -204q-34 0 -51 5t-49 22l16 63q34 -20 52 -20q30 0 30 18q0 8 -22 33.5t-22 38.5v37q-89 15 -137 76.5t-50 155.5q0 109 65.5 173t183.5 64q14 0 27.5 -1.5t23.5 -3t24 -5t21 -6.5l24 -7q16 -5 23 -7v-95l-23 9q-16 7 -20.5 8.5t-16 6t-17.5 5.5l-16 3 q-11 2 -21.5 2.5t-24.5 1.5q-66 0 -99 -39t-33 -109q0 -146 132 -149q25 0 44.5 3.5t26.5 5.5t33 13l35 16v-95q-76 -27 -127 -30v-33q0 -11 24.5 -37.5t27.5 -40.5v-7q0 -26 -22.5 -50t-61.5 -25z" />
<glyph unicode="&#xe8;" horiz-adv-x="540" d="M368 522h-94l-156 152h118zM494 206h-331v-2q0 -49 35.5 -87t92.5 -38q63 0 99 13.5t101 53.5v-96q-40 -26 -98 -44t-106 -18q-112 0 -177.5 64.5t-65.5 168.5q0 99 62 170t168 71q108 0 164 -57.5t56 -156.5v-42zM384 286q-6 87 -110 87q-80 0 -108 -87h218z" />
<glyph unicode="&#xe9;" horiz-adv-x="540" d="M422 674l-156 -152h-96l132 152h120zM494 206h-331v-2q0 -49 35.5 -87t92.5 -38q63 0 99 13.5t101 53.5v-96q-40 -26 -98 -44t-106 -18q-112 0 -177.5 64.5t-65.5 168.5q0 99 62 170t168 71q108 0 164 -57.5t56 -156.5v-42zM384 286q-6 87 -110 87q-80 0 -108 -87h218z " />
<glyph unicode="&#xea;" horiz-adv-x="540" d="M427 522h-91l-67 76l-67 -76h-91l118 152h80zM494 206h-331v-2q0 -49 35.5 -87t92.5 -38q63 0 99 13.5t101 53.5v-96q-40 -26 -98 -44t-106 -18q-112 0 -177.5 64.5t-65.5 168.5q0 99 62 170t168 71q108 0 164 -57.5t56 -156.5v-42zM384 286q-6 87 -110 87 q-80 0 -108 -87h218z" />
<glyph unicode="&#xeb;" horiz-adv-x="540" d="M190 633q24 0 40 -16.5t16 -39.5t-16 -39t-40 -16t-40 16t-16 39t16 39.5t40 16.5zM348 633q24 0 40 -16.5t16 -39.5t-16 -39t-40 -16t-40 16t-16 39t16 39.5t40 16.5zM494 206h-331v-2q0 -49 35.5 -87t92.5 -38q63 0 99 13.5t101 53.5v-96q-40 -26 -98 -44t-106 -18 q-112 0 -177.5 64.5t-65.5 168.5q0 99 62 170t168 71q108 0 164 -57.5t56 -156.5v-42zM384 286q-6 87 -110 87q-80 0 -108 -87h218z" />
<glyph unicode="&#xec;" horiz-adv-x="246" d="M248 522h-94l-156 152h118zM177 0h-108v451h108v-451z" />
<glyph unicode="&#xed;" horiz-adv-x="246" d="M248 674l-156 -152h-94l132 152h118zM177 0h-108v451h108v-451z" />
<glyph unicode="&#xee;" horiz-adv-x="246" d="M281 522h-91l-67 76l-67 -76h-91l118 152h80zM177 0h-108v451h108v-451z" />
<glyph unicode="&#xef;" horiz-adv-x="246" d="M44 633q24 0 40 -16.5t16 -39.5t-16 -39t-40 -16t-40 16t-16 39t16 39.5t40 16.5zM202 633q24 0 40 -16.5t16 -39.5t-16 -39t-40 -16t-40 16t-16 39t16 39.5t40 16.5zM177 0h-108v451h108v-451z" />
<glyph unicode="&#xf0;" horiz-adv-x="563" d="M514 220q0 -105 -61.5 -168.5t-172.5 -63.5q-109 0 -172 64t-63 168q0 97 63 164.5t164 67.5l13 -5l-37 38l-138 -39l-24 64l110 32l-79 85h133l50 -52l146 45l25 -66l-119 -35l55 -52q107 -112 107 -247zM393 220q0 86 -37 133q-15 4 -65 12q-124 0 -124 -145 q0 -64 27.5 -101t85.5 -37q56 0 84.5 37.5t28.5 100.5z" />
<glyph unicode="&#xf1;" horiz-adv-x="558" d="M432 636q0 -47 -24 -80t-72 -34q-33 0 -66 20l-46 29q-10 -1 -10 -22q0 -3 1 -12.5t1 -14.5h-84q0 47 24 80.5t70 33.5q37 0 70 -20l44 -28q10 2 10 30v18h82zM495 0h-113v266q0 53 -19.5 79t-66.5 26q-52 0 -84.5 -32t-33.5 -86v-253h-109v450h109v-46q49 58 137 58 q91 0 135.5 -53t44.5 -141v-268z" />
<glyph unicode="&#xf2;" horiz-adv-x="557" d="M403 522h-95l-156 152h118zM511 225q-1 -99 -63.5 -167.5t-169.5 -69.5q-105 1 -169 71t-65 166q1 103 63.5 170t170.5 67t170.5 -70.5t62.5 -166.5zM392 225q-1 59 -31.5 101.5t-82.5 43.5q-56 -1 -84 -41t-28 -101q0 -26 4.5 -49t16 -46.5t35 -37.5t56.5 -15 q50 0 81.5 43t32.5 102z" />
<glyph unicode="&#xf3;" horiz-adv-x="557" d="M403 674l-156 -152h-95l132 152h119zM511 225q-1 -99 -63.5 -167.5t-169.5 -69.5q-105 1 -169 71t-65 166q1 103 63.5 170t170.5 67t170.5 -70.5t62.5 -166.5zM392 225q-1 59 -31.5 101.5t-82.5 43.5q-56 -1 -84 -41t-28 -101q0 -26 4.5 -49t16 -46.5t35 -37.5t56.5 -15 q50 0 81.5 43t32.5 102z" />
<glyph unicode="&#xf4;" horiz-adv-x="557" d="M436 522h-92l-66 76l-68 -76h-90l118 152h80zM511 225q-1 -99 -63.5 -167.5t-169.5 -69.5q-105 1 -169 71t-65 166q1 103 63.5 170t170.5 67t170.5 -70.5t62.5 -166.5zM392 225q-1 59 -31.5 101.5t-82.5 43.5q-56 -1 -84 -41t-28 -101q0 -26 4.5 -49t16 -46.5t35 -37.5 t56.5 -15q50 0 81.5 43t32.5 102z" />
<glyph unicode="&#xf5;" horiz-adv-x="557" d="M428 636q0 -47 -24.5 -80t-71.5 -34q-30 0 -67 20l-45 29q-10 -1 -10 -22q0 -3 0.5 -12.5t0.5 -14.5h-84q0 46 24.5 80t70.5 34q38 0 69 -20l44 -28q10 2 10 30v18h83zM511 225q-1 -99 -63.5 -167.5t-169.5 -69.5q-105 1 -169 71t-65 166q1 103 63.5 170t170.5 67 t170.5 -70.5t62.5 -166.5zM392 225q-1 59 -31.5 101.5t-82.5 43.5q-56 -1 -84 -41t-28 -101q0 -26 4.5 -49t16 -46.5t35 -37.5t56.5 -15q50 0 81.5 43t32.5 102z" />
<glyph unicode="&#xf6;" horiz-adv-x="557" d="M198 633q24 0 40 -16.5t16 -39.5t-16 -39t-40 -16t-40 16t-16 39t16 39.5t40 16.5zM357 633q24 0 40 -16.5t16 -39.5t-16 -39t-40 -16t-40 16t-16 39t16 39.5t40 16.5zM511 225q-1 -99 -63.5 -167.5t-169.5 -69.5q-105 1 -169 71t-65 166q1 103 63.5 170t170.5 67 t170.5 -70.5t62.5 -166.5zM392 225q-1 59 -31.5 101.5t-82.5 43.5q-56 -1 -84 -41t-28 -101q0 -26 4.5 -49t16 -46.5t35 -37.5t56.5 -15q50 0 81.5 43t32.5 102z" />
<glyph unicode="&#xf7;" horiz-adv-x="524" d="M196 397q0 30 21 51.5t50 21.5t50 -21.5t21 -51.5t-21 -51.5t-50 -21.5t-50 21.5t-21 51.5zM196 120q0 30 21 51.5t50 21.5t50 -21.5t21 -51.5t-21 -51.5t-50 -21.5t-50 21.5t-21 51.5zM494 215h-464v89h464v-89z" />
<glyph unicode="&#xf8;" horiz-adv-x="584" d="M550 441l-69 -75q43 -66 43 -140q0 -101 -60 -169t-169 -68q-66 0 -129 38l-60 -65l-66 48l63 69q-51 73 -51 146q0 107 65.5 171t177.5 64q20 0 33.5 -1t27.5 -7l19 -7q5 -2 23 -13.5t24 -14.5l64 71zM354 347q-25 22 -59 22h-9q-45 0 -70 -27.5t-40 -83.5 q-6 -18 -6 -52q0 -30 6 -53zM405 225q0 24 -2 62l-172 -191q19 -13 64 -14q51 0 80 44t30 99z" />
<glyph unicode="&#xf9;" horiz-adv-x="561" d="M403 522h-95l-156 152h118zM492 0h-113v47q-56 -59 -133 -59q-90 0 -136.5 54t-46.5 140v269h114v-267q0 -52 19.5 -78.5t67.5 -26.5q57 0 86 32t29 87v253h113v-451z" />
<glyph unicode="&#xfa;" horiz-adv-x="561" d="M403 674l-156 -152h-95l132 152h119zM492 0h-113v47q-56 -59 -133 -59q-90 0 -136.5 54t-46.5 140v269h114v-267q0 -52 19.5 -78.5t67.5 -26.5q57 0 86 32t29 87v253h113v-451z" />
<glyph unicode="&#xfb;" horiz-adv-x="561" d="M436 522h-92l-66 76l-68 -76h-90l118 152h80zM492 0h-113v47q-56 -59 -133 -59q-90 0 -136.5 54t-46.5 140v269h114v-267q0 -52 19.5 -78.5t67.5 -26.5q57 0 86 32t29 87v253h113v-451z" />
<glyph unicode="&#xfc;" horiz-adv-x="561" d="M198 633q24 0 40 -16.5t16 -39.5t-16 -39t-40 -16t-40 16t-16 39t16 39.5t40 16.5zM357 633q24 0 40 -16.5t16 -39.5t-16 -39t-40 -16t-40 16t-16 39t16 39.5t40 16.5zM492 0h-113v47q-56 -59 -133 -59q-90 0 -136.5 54t-46.5 140v269h114v-267q0 -52 19.5 -78.5 t67.5 -26.5q57 0 86 32t29 87v253h113v-451z" />
<glyph unicode="&#xfd;" horiz-adv-x="514" d="M409 674l-156 -152h-95l132 152h119zM497 451l-270 -624q-16 -34 -52.5 -50.5t-70.5 -16.5l-36 72q15 0 39 10.5t31 27.5l72 166l-194 415h108l142 -302l122 302h109z" />
<glyph unicode="&#xfe;" horiz-adv-x="572" d="M68 692h108v-241q42 11 87 11q118 0 186 -64t68 -173q-2 -108 -67.5 -172.5t-181.5 -64.5q-32 0 -92 6v-235h-108v933zM176 362v-272q40 -14 83 -14q137 3 137 149q0 69 -35.5 108.5t-101.5 39.5q-48 -3 -83 -11z" />
<glyph unicode="&#xff;" horiz-adv-x="514" d="M177 633q24 0 40 -16.5t16 -39.5t-16 -39t-40 -16t-40 16t-16 39t16 39.5t40 16.5zM336 633q24 0 40 -16.5t16 -39.5t-16 -39t-40 -16t-40 16t-16 39t16 39.5t40 16.5zM497 451l-270 -624q-16 -34 -52.5 -50.5t-70.5 -16.5l-36 72q15 0 39 10.5t31 27.5l72 166l-194 415 h108l142 -302l122 302h109z" />
<glyph unicode="&#x152;" horiz-adv-x="1031" d="M1002 0h-527q-210 0 -323 85.5t-114 260.5q0 175 114.5 260.5t322.5 85.5h516v-95h-365v-183h350v-93h-350v-227h376v-94zM513 94v503h-51q-149 0 -223 -59.5t-75 -191.5q0 -131 74.5 -191.5t223.5 -60.5h51z" />
<glyph unicode="&#x153;" horiz-adv-x="889" d="M734 286q-6 87 -110 87q-80 0 -108 -87h218zM844 206h-331v-2q0 -49 35.5 -87t92.5 -38q63 0 99 13.5t101 53.5v-96q-40 -26 -98 -44t-106 -18q-119 0 -186 73q-63 -72 -173 -73q-105 1 -169 71t-65 166q1 103 63.5 170t170.5 67q109 0 174 -75q65 75 172 75 q108 0 164 -57.5t56 -156.5v-42zM392 225q-1 59 -31.5 101.5t-82.5 43.5q-56 -1 -84 -41t-28 -101q0 -26 4.5 -49t16 -46.5t35 -37.5t56.5 -15q50 0 81.5 43t32.5 102z" />
<glyph unicode="&#x178;" horiz-adv-x="638" d="M240 873q24 0 40 -16.5t16 -39.5t-16 -39t-40 -16t-40 16t-16 39t16 39.5t40 16.5zM399 873q24 0 40 -16.5t16 -39.5t-16 -39t-40 -16t-40 16t-16 39t16 39.5t40 16.5zM639 692l-261 -365v-327h-118v327l-260 365h132l187 -274l188 274h132z" />
<glyph unicode="&#x2c6;" horiz-adv-x="381" d="M348 508h-91l-67 76l-67 -76h-91l118 152h80z" />
<glyph unicode="&#x2dc;" horiz-adv-x="409" d="M350 640q0 -47 -24.5 -80t-71.5 -34q-30 0 -67 20l-45 29q-10 -1 -10 -22q0 -3 0.5 -12.5t0.5 -14.5h-84q0 46 24.5 80t70.5 34q38 0 69 -20l44 -28q10 2 10 30v18h83z" />
<glyph unicode="&#x2000;" horiz-adv-x="464" />
<glyph unicode="&#x2001;" horiz-adv-x="929" />
<glyph unicode="&#x2002;" horiz-adv-x="464" />
<glyph unicode="&#x2003;" horiz-adv-x="929" />
<glyph unicode="&#x2004;" horiz-adv-x="309" />
<glyph unicode="&#x2005;" horiz-adv-x="232" />
<glyph unicode="&#x2006;" horiz-adv-x="154" />
<glyph unicode="&#x2007;" horiz-adv-x="154" />
<glyph unicode="&#x2008;" horiz-adv-x="116" />
<glyph unicode="&#x2009;" horiz-adv-x="185" />
<glyph unicode="&#x200a;" horiz-adv-x="51" />
<glyph unicode="&#x2010;" horiz-adv-x="392" d="M323 193h-254v66h254v-66z" />
<glyph unicode="&#x2011;" horiz-adv-x="392" d="M323 193h-254v66h254v-66z" />
<glyph unicode="&#x2013;" horiz-adv-x="500" d="M69 193v66h362v-66h-362z" />
<glyph unicode="&#x2014;" horiz-adv-x="1000" d="M69 193v66h862v-66h-862z" />
<glyph unicode="&#x2018;" horiz-adv-x="243" d="M199 687q-18 -10 -28.5 -32t-10.5 -46q0 -19 7 -34v-77h-115v75q2 36 51.5 79t92.5 44z" />
<glyph unicode="&#x2019;" horiz-adv-x="251" d="M197 618q-1 -37 -53.5 -80t-106.5 -44q52 34 52 90q0 17 -6 32v76h114v-74z" />
<glyph unicode="&#x201a;" horiz-adv-x="249" d="M194 15q-1 -37 -53.5 -79.5t-106.5 -44.5q52 34 52 90q0 17 -6 32v76h114v-74z" />
<glyph unicode="&#x201c;" horiz-adv-x="417" d="M377 687q-21 -11 -33 -33t-12 -46q0 -19 7 -33v-77h-126v75q1 36 57 78.5t104 44.5zM216 687q-21 -11 -33 -33t-12 -47q0 -15 7 -32v-77h-126v75q1 36 56.5 79t104.5 44z" />
<glyph unicode="&#x201d;" horiz-adv-x="423" d="M369 618q-1 -36 -56.5 -79.5t-104.5 -44.5l-4 9q20 11 32 33.5t12 46.5q0 19 -7 33v76h128v-74zM205 618q-1 -36 -56 -79.5t-104 -44.5l-3 9q20 11 32 33.5t12 46.5q0 15 -7 33v76h126v-74z" />
<glyph unicode="&#x201e;" horiz-adv-x="424" d="M369 15q-1 -36 -56.5 -79.5t-104.5 -44.5l-4 9q20 11 32 33.5t12 46.5q0 19 -7 33v76h128v-74zM205 15q-1 -36 -56 -79.5t-104 -44.5l-3 9q20 11 32 33.5t12 46.5q0 16 -7 33v76h126v-74z" />
<glyph unicode="&#x2022;" horiz-adv-x="334" d="M164 450q49 0 83 -35t34 -85t-34 -85t-83 -35t-83 35t-34 85t34 85t83 35z" />
<glyph unicode="&#x2026;" horiz-adv-x="750" d="M552 60q0 30 21 51.5t50 21.5t50 -21.5t21 -51.5t-21 -51.5t-50 -21.5t-50 21.5t-21 51.5zM302 60q0 30 21 51.5t50 21.5t50 -21.5t21 -51.5t-21 -51.5t-50 -21.5t-50 21.5t-21 51.5zM52 60q0 30 21 51.5t50 21.5t50 -21.5t21 -51.5t-21 -51.5t-50 -21.5t-50 21.5 t-21 51.5z" />
<glyph unicode="&#x202f;" horiz-adv-x="185" />
<glyph unicode="&#x2039;" horiz-adv-x="308" d="M250 57l-224 164v40l224 165v-96l-116 -88l116 -90v-95z" />
<glyph unicode="&#x203a;" horiz-adv-x="306" d="M280 221l-223 -164v95l113 90l-113 88v96l223 -165v-40z" />
<glyph unicode="&#x205f;" horiz-adv-x="232" />
<glyph unicode="&#x20ac;" horiz-adv-x="601" d="M561 57q-34 -30 -82 -50.5t-93 -20.5q-115 0 -183 68t-88 181h-99l32 71h62v78h-94l32 71h67q19 110 89 179.5t182 69.5q44 0 92.5 -20.5t82.5 -49.5v-120q-45 53 -81 75.5t-91 22.5q-129 0 -161 -157h271l-44 -71h-238v-78h205l-31 -71h-163q29 -157 161 -157 q55 0 88.5 21t83.5 73v-115z" />
<glyph unicode="&#x2122;" horiz-adv-x="694" d="M625 369h-81v151l-57 -89h-42l-61 90v-152h-83v232h101l65 -83l59 83h99v-232zM289 543h-86v-174h-82v174h-85v58h253v-58z" />
</font>
</defs>
</svg>
