<?xml version="1.0" standalone="no"?>
<!DOCTYPE svg PUBLIC "-//W3C//DTD SVG 1.1//EN" "http://www.w3.org/Graphics/SVG/1.1/DTD/svg11.dtd" >
<svg xmlns="http://www.w3.org/2000/svg">
<metadata>
This is a custom SVG webfont generated by Font Squirrel.
Designer    : Hirwen HARENDAL
Foundry     : Arkandis Digital Foundry.
Foundry URL : http://arkandis.tuxfamily.org
</metadata>
<defs>
<font id="webfontvJUiAdi3" horiz-adv-x="500" >
<font-face units-per-em="1000" ascent="750" descent="-250" />
<missing-glyph horiz-adv-x="300" />
<glyph unicode=" "  horiz-adv-x="300" />
<glyph unicode="&#x09;" horiz-adv-x="300" />
<glyph unicode="&#xa0;" horiz-adv-x="300" />
<glyph unicode="!" horiz-adv-x="217" d="M108 86q18 0 31 -14.5t13 -32.5t-13 -32.5t-31 -14.5t-31 14.5t-13 32.5t13 32.5t31 14.5zM150 389l-9 -164h-65l-11 164v303h85v-303z" />
<glyph unicode="&#x22;" horiz-adv-x="360" d="M129 377h-60v224h60v-224zM291 377h-60v224h60v-224z" />
<glyph unicode="#" horiz-adv-x="618" d="M398 421h-139l-39 -162h140zM606 421h-153l-36 -162h138v-66h-152l-46 -193h-57l44 193h-133l-51 -193h-57l45 193h-137v66h151l39 162h-141v65h151l49 194h58l-47 -194h141l46 194h56l-44 -194h136v-65z" />
<glyph unicode="$" horiz-adv-x="444" d="M257 -100h-62v86q-54 4 -154 43v91q80 -64 153 -67l-1 270q-77 21 -114 61t-37 124q0 88 40 136.5t109 57.5v48h62v-48q68 -6 120 -34v-82q-39 26 -62.5 36.5t-56.5 12.5l1 -243q75 -22 115.5 -69.5t40.5 -134.5q0 -174 -154 -199v-89zM255 305l1 -243q80 27 80 119 q0 54 -20.5 81t-60.5 43zM193 407l-1 223q-76 -20 -79 -115q0 -49 20 -72t60 -36z" />
<glyph unicode="%" horiz-adv-x="788" d="M260 518q0 58 -21.5 96.5t-69.5 38.5q-45 0 -67.5 -40.5t-22.5 -94.5q0 -55 22 -95.5t68 -42.5q89 0 91 138zM708 173q0 54 -21.5 94.5t-67.5 40.5q-89 0 -91 -135q0 -56 21.5 -96t69.5 -40q45 0 66 39.5t23 96.5zM310 518q0 -77 -35 -131t-106 -54q-72 0 -105 52 t-35 133q0 75 35.5 130.5t104.5 55.5q68 0 104.5 -56t36.5 -130zM624 704l-403 -718h-57l403 718h57zM759 173q0 -75 -35.5 -131t-104.5 -56q-70 0 -106.5 55.5t-36.5 131.5q0 74 37.5 129t105.5 56q68 0 104 -56t36 -129z" />
<glyph unicode="&#x26;" horiz-adv-x="638" d="M428 117l-243 260q-43 -37 -65 -74t-22 -86q0 -75 49 -119.5t124 -44.5q82 0 157 64zM631 0h-99l-66 69q-98 -83 -203 -83q-100 0 -165 62t-65 163q0 113 117 213q-18 25 -33 60q-10 32 -10 62q0 70 45 112q46 46 122 46q75 0 141 -33l-33 -61q-29 21 -44 25.5t-55 4.5 q-51 0 -80 -28q-33 -26 -33 -66q0 -26 15 -56q17 -29 55 -68l230 -245q34 47 46.5 87.5t14.5 102.5h69q-10 -109 -92 -237z" />
<glyph unicode="'" horiz-adv-x="184" d="M125 692q14 -53 14 -100q0 -56 -22 -106l-43 -18l-1 96q0 17 -4 34t-13 42.5t-11 33.5z" />
<glyph unicode="(" horiz-adv-x="248" d="M233 -125h-58q-135 220 -135 423q0 198 135 422h58q-64 -115 -92.5 -208.5t-29.5 -213.5q0 -117 29.5 -213.5t92.5 -209.5z" />
<glyph unicode=")" horiz-adv-x="249" d="M208 298q0 -101 -38 -214.5t-97 -208.5h-58q63 112 92.5 209t29.5 214q0 116 -30 213.5t-93 208.5h59q135 -221 135 -422z" />
<glyph unicode="*" horiz-adv-x="446" d="M414 396l-18 -41l-153 93v-177h-40v177l-152 -93l-19 41l157 93l-157 91l19 43l152 -97v178h40v-178l153 97l18 -43l-160 -92z" />
<glyph unicode="+" horiz-adv-x="541" d="M529 228h-229v-228h-58v228h-231v62h231v227h58v-227h229v-62z" />
<glyph unicode="," horiz-adv-x="233" d="M55 45q0 24 17 41t42 17t42 -17t17 -41q0 -56 -44 -100.5t-74 -44.5q10 2 34.5 34t24.5 53q-25 0 -42 17t-17 41z" />
<glyph unicode="-" horiz-adv-x="366" d="M297 193h-228v66h228v-66z" />
<glyph unicode="." horiz-adv-x="233" d="M55 45q0 24 17 41t42 17t42 -17t17 -41t-17 -41t-42 -17t-42 17t-17 41z" />
<glyph unicode="/" horiz-adv-x="314" d="M304 692l-231 -780h-62l230 780h63z" />
<glyph unicode="0" horiz-adv-x="550" d="M423 344q0 295 -149 295q-34 0 -60.5 -14.5t-41.5 -42t-25 -55t-14 -66t-5 -62t-1 -55.5q0 -31 1 -55t5 -61.5t14 -65.5t25.5 -54.5t41.5 -41t60 -14.5q149 0 149 292zM494 344q0 -49 -5 -94t-19.5 -94.5t-38 -86t-64 -60t-93.5 -23.5t-93.5 23.5t-63.5 59.5t-37.5 86 t-19.5 95t-5 94t4.5 93.5t19 95t37.5 87t63.5 60.5t94.5 24q53 0 94 -24t64 -60t37.5 -86.5t19.5 -95.5t5 -94z" />
<glyph unicode="1" horiz-adv-x="286" d="M208 0h-77v617l-60 -54l-44 48l98 81h83v-692z" />
<glyph unicode="2" horiz-adv-x="481" d="M36 0q7 8 66 90l118 165q59 84 62 88l37 51q12 17 27.5 50.5t15.5 58.5q0 60 -40 95.5t-100 35.5q-84 0 -182 -63v79q99 54 180 54q94 0 153.5 -51.5t59.5 -144.5q0 -12 -1 -22.5t-4 -22t-4.5 -19t-7.5 -19.5t-8 -17t-10 -18t-10 -16.5t-12 -17.5l-11 -18l-189 -266h263 v-72h-403z" />
<glyph unicode="3" horiz-adv-x="480" d="M427 200q0 -108 -69 -161t-180 -53q-46 0 -75 6.5t-60 26.5v85q5 -3 23 -15t23.5 -14.5t20.5 -8.5t30 -7.5t36 -1.5q85 0 132.5 32t47.5 111q0 68 -45 101.5t-117 33.5h-32v68h35q64 0 103.5 27.5t40.5 85.5q0 62 -40 90t-107 28q-30 0 -47.5 -3.5t-43.5 -15t-40 -16.5 v76q5 2 17 6l18 5q5 2 16 5l16 5q6 1 16 3t18 3t18 1.5t20 0.5q89 0 149.5 -45t60.5 -131q0 -54 -31.5 -94t-88.5 -61q65 -18 100 -65t35 -108z" />
<glyph unicode="4" horiz-adv-x="508" d="M318 236v299l-198 -299h198zM487 165h-94v-165h-75v165h-293v30l330 497h38v-456h94v-71z" />
<glyph unicode="5" horiz-adv-x="487" d="M445 220q0 -113 -65.5 -173.5t-178.5 -60.5q-84 0 -167 29v87q73 -45 165 -45q80 0 127 41.5t47 121.5q0 77 -47.5 119t-126.5 42h-137v311h336v-73h-269v-166h86q105 0 166.5 -63.5t63.5 -169.5z" />
<glyph unicode="6" horiz-adv-x="525" d="M127 207q0 -72 39.5 -113.5t109.5 -41.5q69 0 104 41.5t35 113.5q0 73 -35.5 120.5t-103.5 47.5q-70 0 -108.5 -47t-40.5 -121zM48 261q0 91 25 168.5t66.5 130t86.5 86.5t92 52l45 -44q-77 -26 -149.5 -110t-73.5 -169q45 61 141 65q100 0 153 -64.5t53 -168.5 q0 -97 -60.5 -158t-150.5 -63q-63 0 -108.5 22t-71 61.5t-37 87t-11.5 104.5z" />
<glyph unicode="7" horiz-adv-x="447" d="M423 657l-247 -671l-68 22l223 610h-315v74h407v-35z" />
<glyph unicode="8" horiz-adv-x="536" d="M413 193q0 66 -39.5 103t-106.5 37q-68 0 -107 -36t-39 -104q0 -69 38.5 -105t107.5 -36q67 0 106.5 36.5t39.5 104.5zM398 518q-5 121 -131 121q-125 0 -133 -121q2 -49 40.5 -84t90.5 -35h2q55 0 93 33t38 86zM483 193q0 -102 -56.5 -154.5t-159.5 -52.5t-160.5 52.5 t-57.5 154.5q0 63 35.5 108.5t102.5 66.5q-64 23 -93.5 56.5t-29.5 93.5q0 87 58.5 136.5t144.5 49.5t144 -49.5t59 -136.5q0 -99 -112 -150q122 -43 125 -175z" />
<glyph unicode="9" horiz-adv-x="526" d="M397 471q0 72 -39.5 113.5t-109.5 41.5q-69 0 -104 -41.5t-35 -113.5q0 -73 35.5 -120.5t103.5 -47.5q70 0 108.5 47t40.5 121zM476 417q0 -85 -25.5 -161t-67 -129.5t-87.5 -90.5t-92 -54l-45 42q77 37 148.5 115.5t74.5 148.5q-29 -27 -59 -37.5t-80 -12.5 q-100 0 -153 64.5t-53 168.5q0 97 60.5 158t150.5 63q63 0 108.5 -22t71 -61.5t37 -87t11.5 -104.5z" />
<glyph unicode=":" horiz-adv-x="233" d="M55 47q0 24 17 41t42 17t42 -17t17 -41t-17 -41t-42 -17t-42 17t-17 41zM55 345q0 24 17 41t42 17t42 -17t17 -41t-17 -41t-42 -17t-42 17t-17 41z" />
<glyph unicode=";" horiz-adv-x="233" d="M55 345q0 24 17 41t42 17t42 -17t17 -41t-17 -41t-42 -17t-42 17t-17 41zM55 45q0 24 17 41t42 17t42 -17t17 -41q0 -56 -44 -100.5t-74 -44.5q10 2 34.5 34t24.5 53q-25 0 -42 17t-17 41z" />
<glyph unicode="&#x3c;" horiz-adv-x="575" d="M537 38l-518 189v62l518 190v-68l-431 -153l431 -152v-68z" />
<glyph unicode="=" horiz-adv-x="657" d="M588 142h-519v63h519v-63zM588 312h-519v62h519v-62z" />
<glyph unicode="&#x3e;" horiz-adv-x="576" d="M557 227l-519 -189v68l431 152l-431 153v68l519 -190v-62z" />
<glyph unicode="?" horiz-adv-x="383" d="M190 86q18 0 31 -14.5t13 -32.5t-13 -32.5t-31 -14.5t-31 14.5t-13 32.5t13 32.5t31 14.5zM355 543q0 -29 -10 -54t-22 -40t-36 -40l-40 -41q-35 -39 -42 -56.5t-7 -69.5v-59l-24 1l-45 72q-11 18 -11 36q0 11 4 22.5t13 23.5t17 20l21 22q14 15 20 22l39 41q48 46 52 95 q0 48 -33 73t-83 25q-28 0 -46 -5.5t-41 -22.5t-25 -18l-30 62q48 28 79.5 40t78.5 12q77 0 123.5 -42t47.5 -119z" />
<glyph unicode="@" horiz-adv-x="878" d="M575 248q0 64 -35 104q-39 37 -97 37q-63 0 -95.5 -39.5t-34.5 -101.5q0 -60 34.5 -100.5t96.5 -40.5q63 0 96 40t35 101zM848 305q0 -122 -72.5 -193t-199.5 -72v62q-23 -27 -63.5 -43.5t-84.5 -16.5q-85 0 -131.5 61t-46.5 145q0 85 45.5 146.5t132.5 62.5 q115 0 148 -61v53h63v-341q150 22 154 195q0 123 -95 220t-240 97h-8q-161 0 -262.5 -108t-101.5 -261q0 -158 106 -253.5t257 -95.5q121 0 225 79l41 -54q-67 -47 -126.5 -69t-137.5 -23q-176 0 -296.5 116t-120.5 300q0 80 27 153.5t78 133t133.5 94.5t184.5 35 q176 0 283.5 -107t107.5 -255z" />
<glyph unicode="A" horiz-adv-x="655" d="M468 252l-139 356l-142 -356h281zM647 0h-88l-64 180h-335l-65 -180h-87l269 692h99z" />
<glyph unicode="B" horiz-adv-x="590" d="M474 202q0 72 -41.5 101.5t-123.5 29.5h-164v-264h164q81 0 123 31t42 102zM453 513q0 106 -155 110h-153v-222h153q69 0 111.5 28t43.5 84zM549 193q0 -99 -62.5 -146t-171.5 -47h-246v692h237q209 0 216 -169q0 -55 -23 -94.5t-69 -50.5v-10q56 -17 87.5 -65t31.5 -110 z" />
<glyph unicode="C" horiz-adv-x="628" d="M596 51q-92 -65 -218 -65q-164 0 -250 100t-86 258q0 159 85.5 259.5t250.5 100.5q120 0 218 -64v-94q-44 47 -95 68.5t-121 21.5q-71 0 -122.5 -22.5t-81.5 -63.5t-44.5 -92t-15.5 -114q0 -131 64.5 -210.5t199.5 -79.5q69 0 119.5 21t96.5 67v-91z" />
<glyph unicode="D" horiz-adv-x="683" d="M566 347q0 144 -71.5 209t-225.5 67h-125v-554h125q152 0 224.5 68t72.5 210zM639 347q0 -183 -93.5 -265t-289.5 -82h-187v692h187q196 0 289.5 -81.5t93.5 -263.5z" />
<glyph unicode="E" horiz-adv-x="536" d="M511 0h-442v692h433v-73h-358v-215h342v-72h-342v-260h367v-72z" />
<glyph unicode="F" horiz-adv-x="479" d="M463 619h-318v-213h287v-73h-287v-333h-76v692h394v-73z" />
<glyph unicode="G" horiz-adv-x="684" d="M637 62q-107 -76 -255 -76q-168 0 -254 97.5t-86 260.5q0 164 85.5 262t255.5 98q132 0 237 -64v-93q-55 48 -106.5 68.5t-125.5 20.5q-265 0 -272 -292q0 -135 67 -212.5t208 -77.5q90 0 173 35v198h-162v70h235v-295z" />
<glyph unicode="H" horiz-adv-x="654" d="M585 0h-76v332h-365v-332h-75v692h75v-288h365v288h76v-692z" />
<glyph unicode="I" horiz-adv-x="213" d="M144 0h-75v692h75v-692z" />
<glyph unicode="J" horiz-adv-x="223" d="M154 46q0 -121 -49 -181q-45 -54 -151 -54h-30v70h23q77 0 106 35q27 36 27 130v646h74v-646z" />
<glyph unicode="K" horiz-adv-x="615" d="M616 0h-114l-357 338v-338h-76v692h76v-297l331 297h116l-358 -321z" />
<glyph unicode="L" horiz-adv-x="502" d="M497 0h-428v692h76v-620h352v-72z" />
<glyph unicode="M" horiz-adv-x="761" d="M692 0h-75v554l-234 -419l-239 419v-554h-75v692h81l233 -410l228 410h81v-692z" />
<glyph unicode="N" horiz-adv-x="651" d="M582 0h-81l-358 557v-557h-74v692h71l367 -558v558h75v-692z" />
<glyph unicode="O" horiz-adv-x="715" d="M597 344q0 57 -13 107t-40.5 92.5t-76 67.5t-112.5 25q-63 0 -111 -25t-75.5 -68t-40.5 -93t-13 -106q0 -54 13.5 -104t41 -93t75.5 -68.5t110 -25.5q63 0 111 25t76 68t41.5 93t13.5 105zM671 344q0 -99 -32 -177.5t-105 -129.5t-179 -51q-79 0 -140.5 29.5t-98.5 80 t-56 113.5t-19 135q0 96 32 175.5t105 132t177 52.5q106 0 179 -51.5t105 -130.5t32 -178z" />
<glyph unicode="P" horiz-adv-x="534" d="M429 486q0 67 -40 101t-113 36h-132v-272h132q73 0 112 35t41 100zM504 485q0 -205 -231 -205h-129v-280h-75v692h207q110 0 169 -52t59 -155z" />
<glyph unicode="Q" horiz-adv-x="715" d="M597 345q0 56 -13 106t-40.5 92.5t-76 67.5t-112.5 25q-63 0 -111 -25t-75.5 -68t-40.5 -92.5t-13 -105.5q0 -53 14 -103t41.5 -92.5t75 -68.5t109.5 -26t110 25t76 67.5t42 92.5t14 105zM632 -200q-32 0 -86 36.5t-97 82t-49 71.5q-18 0 -28 -0.5t-16 -0.5 q-104 0 -177.5 51t-105.5 129.5t-32 175.5q0 96 32 175t105 131.5t177 52.5q80 0 142 -29.5t99 -80t56 -113.5t19 -136q0 -252 -184 -335q0 -26 81 -80t109 -54z" />
<glyph unicode="R" horiz-adv-x="567" d="M386 496q0 124 -152 127h-90v-258h90q72 0 112 33t40 98zM557 0h-75q-9 37 -60.5 107t-117.5 128.5t-106 58.5l-54 1v-295h-75v692h166q225 0 225 -196q0 -142 -151 -181q68 -34 138.5 -127t109.5 -188z" />
<glyph unicode="S" horiz-adv-x="444" d="M411 188q0 -107 -55 -154.5t-147 -47.5q-59 0 -168 43v91q82 -67 161 -67q55 0 94.5 31.5t39.5 96.5q0 60 -24.5 86.5t-75.5 44.5l-40 10q-78 21 -116 61t-38 125q0 98 49 147t131 49q86 0 151 -36v-82q-31 20 -45.5 28t-38 15t-52.5 7q-121 0 -124 -121 q0 -54 24.5 -76.5t73.5 -36.5l42 -10q76 -21 117 -68.5t41 -135.5z" />
<glyph unicode="T" horiz-adv-x="604" d="M594 619h-254v-619h-75v619h-255v73h584v-73z" />
<glyph unicode="U" horiz-adv-x="646" d="M583 258q0 -129 -62.5 -200.5t-195.5 -71.5t-197.5 71t-64.5 201v434h75v-422q0 -108 39.5 -162.5t147.5 -54.5q106 0 145 55t39 162v422h74v-434z" />
<glyph unicode="V" horiz-adv-x="657" d="M647 692l-317 -706l-320 706h85l235 -512l230 512h87z" />
<glyph unicode="W" horiz-adv-x="923" d="M903 692l-239 -706l-204 524l-206 -524l-233 706h76l156 -472l207 488l201 -488l159 472h83z" />
<glyph unicode="X" horiz-adv-x="611" d="M601 0h-90l-205 300l-211 -300h-90l258 371l-225 321h90l184 -262l185 262h90l-230 -332z" />
<glyph unicode="Y" horiz-adv-x="579" d="M580 692l-253 -362v-330h-75v330l-252 362h90l200 -291l200 291h90z" />
<glyph unicode="Z" horiz-adv-x="616" d="M595 0h-570v67l453 551h-443v74h548l-1 -66l-454 -554h467v-72z" />
<glyph unicode="[" horiz-adv-x="265" d="M248 -125h-179v846h179v-60h-108v-728h108v-58z" />
<glyph unicode="\" horiz-adv-x="316" d="M304 -88h-63l-230 780h62z" />
<glyph unicode="]" horiz-adv-x="265" d="M196 -125h-179v58h108v728h-108v60h179v-846z" />
<glyph unicode="^" horiz-adv-x="603" d="M585 433l-89 1l-195 181l-195 -181l-88 -1l241 259h84z" />
<glyph unicode="_" horiz-adv-x="450" d="M452 -224h-462v67h462v-67z" />
<glyph unicode="`" horiz-adv-x="280" d="M249 508h-66l-148 152h87z" />
<glyph unicode="a" d="M346 178v8q-8 17 -35.5 30.5t-58.5 13.5q-140 0 -142 -93q0 -43 28 -64.5t72 -21.5q62 1 99 31.5t37 95.5zM472 68q-2 -31 -21 -54t-51 -26q-24 2 -39 20.5t-15 50.5q-55 -71 -157 -71q-69 0 -107 37.5t-40 106.5q0 82 55.5 117.5t144.5 35.5q57 0 104 -30v29 q-1 63 -34 89.5t-94 26.5q-86 0 -145 -58v74q29 21 71.5 33.5t80.5 12.5q190 0 190 -177v-199v-3q0 -27 23 -32h3q17 0 31 17z" />
<glyph unicode="b" horiz-adv-x="519" d="M144 380v-311q39 -17 90 -17q81 1 121.5 46t40.5 127q0 80 -41.5 126.5t-120.5 46.5q-54 -3 -90 -18zM69 692h75v-243q47 13 94 13q109 0 171 -64t62 -173q-2 -108 -61.5 -172.5t-166.5 -64.5q-96 0 -174 37v667z" />
<glyph unicode="c" horiz-adv-x="442" d="M406 16q-78 -28 -132 -28q-107 0 -166.5 64.5t-61.5 172.5q0 109 62 173t171 64q48 0 127 -27v-75q-7 3 -19.5 9.5l-16.5 8.5l-14 6q-10 4 -15.5 5.5t-15 3.5t-19.5 3t-23 2q-79 0 -120.5 -46.5t-41.5 -126.5q0 -82 40.5 -127t121.5 -46q19 0 31.5 1t25.5 5.5t18.5 7 t22.5 11.5l25 13v-74z" />
<glyph unicode="d" horiz-adv-x="516" d="M373 380q-36 15 -90 18q-79 0 -120.5 -46.5t-41.5 -126.5q0 -82 40.5 -127t121.5 -46q51 0 90 17v311zM448 692v-667q-78 -37 -174 -37q-107 0 -166.5 64.5t-61.5 172.5q0 109 62 173t171 64q47 0 94 -13v243h75z" />
<glyph unicode="e" horiz-adv-x="496" d="M383 287q0 47 -36 79t-93 32q-54 0 -87.5 -31.5t-40.5 -79.5h257zM456 226h-333v-8q0 -79 39 -121t110 -42q61 0 102.5 16.5t81.5 51.5v-75q-29 -28 -83.5 -44t-105.5 -16q-102 0 -161.5 64.5t-59.5 168.5q0 99 56 170t152 71q202 -4 202 -229v-7z" />
<glyph unicode="f" horiz-adv-x="274" d="M274 628h-50q-23 0 -36 -23t-13 -84v-70h79v-60h-79v-391h-75v391h-73v60h73v62q4 177 125 179h49v-64z" />
<glyph unicode="g" horiz-adv-x="453" d="M225 396q-40 0 -68.5 -28.5t-28.5 -69.5t28.5 -69.5t68.5 -28.5t68.5 28.5t28.5 69.5t-28.5 69.5t-68.5 28.5zM213 75q87 0 157 -43t70 -116q0 -62 -67 -109t-160 -47q-91 0 -149 47t-58 110q0 39 24.5 73.5t67.5 56.5q-54 30 -54 72q0 29 22 47t46 19q-43 43 -43 111 q2 67 49 115t112 49q31 0 64 -10h127v-56h-73q33 -46 33 -98q0 -68 -45.5 -116t-110.5 -48q-56 0 -77 18q-35 0 -35 -30q0 -15 21 -30.5t54 -15.5q9 1 25 1zM212 11q-62 0 -97 -26.5t-35 -68.5t35 -68t97 -26q64 0 103.5 26.5t39.5 67.5q0 42 -40 68.5t-103 26.5z" />
<glyph unicode="h" horiz-adv-x="521" d="M458 0h-73v270q0 63 -24 94.5t-82 32.5q-58 -1 -96.5 -39.5t-39.5 -102.5v-255h-74v692h74v-303q45 73 154 73q81 0 121 -52t40 -136v-274z" />
<glyph unicode="i" horiz-adv-x="213" d="M107 692q18 0 31 -14.5t13 -32.5t-13 -32.5t-31 -14.5t-31 14.5t-13 32.5t13 32.5t31 14.5zM144 0h-75v451h75v-451z" />
<glyph unicode="j" horiz-adv-x="215" d="M107 692q18 0 31 -14.5t13 -32.5t-13 -32.5t-31 -14.5t-31 14.5t-13 32.5t13 32.5t31 14.5zM146 -84q0 -85 -37 -124q-21 -23 -50 -32l-31 56q15 6 27 20q14 19 14 80v535h77v-535z" />
<glyph unicode="k" d="M489 0h-104l-240 237v-237h-76v692h76v-445l232 204h102l-230 -209z" />
<glyph unicode="l" horiz-adv-x="200" d="M132 692v-692h-74v692h74z" />
<glyph unicode="m" horiz-adv-x="804" d="M740 0h-70v270q0 61 -22 93.5t-76 32.5q-64 0 -97 -37.5t-35 -103.5v-255h-71v270q0 63 -22 94.5t-76 31.5h-4q-54 0 -88 -40t-36 -101v-255h-74v452h74v-61q26 31 66.5 51t83.5 20q47 0 83 -25t55 -66q60 91 162 91q77 0 112 -54t35 -136v-272z" />
<glyph unicode="n" horiz-adv-x="521" d="M458 0h-73v270q0 63 -24.5 94.5t-81.5 31.5q-60 0 -97.5 -38.5t-38.5 -102.5v-255h-74v452h74v-62q52 72 154 72q82 0 121.5 -52t39.5 -138v-272z" />
<glyph unicode="o" horiz-adv-x="519" d="M397 225q-1 69 -38.5 119t-100.5 51q-67 -1 -102 -48t-35 -119q0 -29 6 -56t20 -54.5t42.5 -44t68.5 -17.5q61 0 99.5 50t39.5 119zM471 225q-1 -100 -58 -168t-155 -69q-95 1 -153.5 71t-59.5 166q1 103 57.5 170t155.5 67q105 0 159 -70t54 -167z" />
<glyph unicode="p" horiz-adv-x="516" d="M141 71q36 -15 90 -18q79 0 120.5 46.5t41.5 126.5q0 82 -40.5 127t-121.5 46q-51 0 -90 -17v-311zM66 -241v667q78 37 174 37q107 0 166.5 -64.5t61.5 -172.5q0 -109 -62 -173t-171 -64q-47 0 -94 13v-243h-75z" />
<glyph unicode="q" horiz-adv-x="515" d="M372 71v311q-39 17 -90 17q-81 -1 -121.5 -46t-40.5 -127q0 -80 41.5 -126.5t120.5 -46.5q54 3 90 18zM447 -241h-75v243q-47 -13 -94 -13q-109 0 -171 64t-62 173q2 108 61.5 172.5t166.5 64.5q96 0 174 -37v-667z" />
<glyph unicode="r" horiz-adv-x="370" d="M324 342l-2 1q-13 16 -44.5 33.5t-49.5 17.5h-2q-33 -3 -53 -28.5t-24.5 -48t-4.5 -42.5v-275h-75v452h75v-61q33 64 106 67q26 0 56 -13t50 -35z" />
<glyph unicode="s" horiz-adv-x="388" d="M347 124q0 -72 -47.5 -104t-115.5 -32q-57 0 -141 28v80q63 -33 89 -39q22 -5 54 -6q35 0 61.5 15t27.5 51q0 12 -2.5 21.5t-8.5 17.5l-11 12q-4 4 -15.5 9t-15.5 6.5t-19 5.5t-17 5l-21 6q-58 14 -86.5 41.5t-29.5 86.5q0 70 43 102t107 32q63 0 126 -25v-74 q-5 3 -15.5 8.5t-13 7t-10.5 5t-11 4.5l-10 4q-7 2 -11.5 2.5t-12.5 1.5t-15.5 1.5t-18.5 1.5q-89 0 -91 -66q0 -23 15.5 -38t29 -19.5t37.5 -10.5l19 -6q64 -16 97 -44.5t33 -90.5z" />
<glyph unicode="t" horiz-adv-x="345" d="M128 580h32v-129h133v-59h-133v-244q0 -54 16 -76t67 -22q38 0 79 19v-64q-37 -17 -79 -19q-84 0 -120.5 38.5t-36.5 123.5v244h-53v13z" />
<glyph unicode="u" horiz-adv-x="524" d="M455 0h-77v59q-26 -31 -67 -51t-84 -20q-81 0 -122 53t-41 137v273h73v-271q0 -126 107 -126q66 0 100 38t34 104v255h77v-451z" />
<glyph unicode="v" horiz-adv-x="481" d="M461 451l-220 -465l-220 465h69l151 -316l151 316h69z" />
<glyph unicode="w" horiz-adv-x="666" d="M637 451l-161 -465l-142 336l-146 -336l-158 465h64l106 -306l134 317l134 -317l105 306h64z" />
<glyph unicode="x" horiz-adv-x="473" d="M454 0h-78l-141 182l-141 -182h-78l184 237l-169 214h81l128 -165l126 165h80l-171 -218z" />
<glyph unicode="y" horiz-adv-x="474" d="M457 451l-271 -624q-18 -29 -45.5 -48t-55.5 -20l-25 51q17 0 41.5 16.5t33.5 38.5l77 182l-197 404h71l163 -330l139 330h69z" />
<glyph unicode="z" horiz-adv-x="450" d="M410 0h-374v29l260 356h-250v66h364v-26l-263 -359h263v-66z" />
<glyph unicode="{" horiz-adv-x="357" d="M343 -155h-21q-103 0 -143 35q-32 32 -32 133v112q0 71 -27 101q-25 28 -93 28h-21v59h21q67 0 93 29q27 29 27 98v113q0 103 33 134q37 33 142 34h21v-58h-24q-70 0 -88 -22q-20 -21 -21 -90v-116q0 -75 -19 -101q-17 -32 -69 -51q53 -17 69 -47q19 -30 19 -104v-117 q0 -67 21 -89q18 -20 88 -22h24v-59z" />
<glyph unicode="|" horiz-adv-x="210" d="M141 -224h-72v948h72v-948z" />
<glyph unicode="}" horiz-adv-x="355" d="M349 254h-20q-69 0 -94 -28q-26 -29 -26 -101v-112q0 -99 -34 -133q-37 -35 -140 -35h-21v59h24q68 0 86 21q22 22 22 90v117q0 74 18 103q17 31 72 48q-58 19 -72 51q-18 24 -18 101v116q0 70 -22 89q-17 21 -86 23h-24v58h21q103 0 140 -34q34 -31 34 -134v-113 q0 -70 26 -99q28 -28 94 -28h20v-59z" />
<glyph unicode="~" horiz-adv-x="624" d="M570 262q-36 -30 -78 -48q-40 -13 -73 -14q-48 0 -104 26l-3 2q-4 1 -10 4t-14 6.5t-18 6.5l-22 6q-11 3 -24.5 4.5t-26.5 1.5h-3q-42 0 -74 -16q-28 -11 -68 -53v69q30 25 77 47q37 14 75 14q18 0 57.5 -10t59.5 -20q68 -27 107 -27q30 0 74 16q47 33 68 52v-67z" />
<glyph unicode="&#xa1;" horiz-adv-x="217" d="M109 692q18 0 31 -14.5t13 -32.5t-13 -32.5t-31 -14.5t-31 14.5t-13 32.5t13 32.5t31 14.5zM150 0h-85v304l10 162h66l9 -162v-304z" />
<glyph unicode="&#xa2;" horiz-adv-x="433" d="M251 53v411q-82 -14 -116.5 -66.5t-36.5 -138.5q0 -182 153 -206zM408 20q-61 -28 -125 -33v-132h-32v134q-111 9 -166 82t-55 188q0 114 55 186t166 84v134h32v-134q74 -6 125 -31v-74q-33 22 -54 29t-71 15v-416q66 3 125 40v-72z" />
<glyph unicode="&#xa3;" horiz-adv-x="461" d="M185 298l-63 -228l320 2v-72h-422l85 298h-69v59h86l78 275q57 72 149 72q23 0 57 -8q37 -7 63 -18v-77q-51 28 -54 29q-30 9 -58 9q-57 0 -87 -35l-68 -247h27h140v-59h-165h-19z" />
<glyph unicode="&#xa4;" horiz-adv-x="599" d="M448 296q0 57 -45 100.5t-106 43.5q-60 0 -102 -43.5t-44 -100.5q0 -58 43.5 -102.5t105.5 -44.5q61 0 104.5 45t43.5 102zM566 86l-48 -47l-99 99q-66 -39 -119 -39q-26 0 -64 12.5t-59 25.5l-96 -100l-47 49l100 98q-34 66 -34 112q0 50 36 111l-101 99l48 49l97 -99 q63 36 120 36q52 0 120 -35l99 100l47 -50l-100 -98q32 -67 32 -113q0 -12 -1.5 -23t-2.5 -17.5t-6.5 -19t-6.5 -15t-9 -17.5l-9 -18z" />
<glyph unicode="&#xa5;" horiz-adv-x="519" d="M501 692l-140 -275h119v-50h-146l-39 -75v-30h185v-49h-181v-213h-77v213h-182v49h182l-1 30l-38 75h-143v50h118l-140 275h70l173 -329l169 329h71z" />
<glyph unicode="&#xa6;" horiz-adv-x="210" d="M141 -162h-72v347h72v-347zM141 317h-72v346h72v-346z" />
<glyph unicode="&#xa7;" horiz-adv-x="419" d="M334 274q0 12 -4 24t-13 23.5t-18 21.5t-24 21l-25 18q-11 8 -28 18l-26 15l-26 14t-20 11q-20 -15 -31 -24.5t-22 -27.5t-12 -39q0 -12 4 -24.5t13 -24.5l18 -21q7 -9 24 -21l24 -18q8 -6 28 -18l26 -14l28 -14l21 -11q3 2 13 11l16 14q4 4 12 13t11.5 16t7 17t3.5 20z M387 288q0 -45 -20 -75t-62 -58q27 -24 39 -46.5t16 -58.5q0 -68 -45.5 -104t-115.5 -36q-62 0 -136 24v70q64 -33 125 -36q43 0 74.5 19.5t31.5 59.5q0 28 -38 62.5t-78 53.5q-6 4 -25.5 16t-25.5 16l-21 15q-16 11 -22 16l-16 17q-12 11 -16 19l-10 21q-6 12 -8 24.5 t-2 27.5q0 85 84 134q-29 22 -41.5 44t-14.5 59q0 63 46 97.5t111 34.5q64 0 128 -25v-69q-72 33 -120 36q-42 0 -71.5 -18.5t-29.5 -57.5q0 -43 99 -100q2 -1 5 -3.5t5.5 -4t4.5 -2.5q81 -49 103 -71q46 -43 46 -101z" />
<glyph unicode="&#xa8;" horiz-adv-x="371" d="M265 632q19 0 32 -14t13 -34t-13 -34t-32 -14t-32 14t-13 34t13 34t32 14zM100 632q19 0 32 -14t13 -34t-13 -34t-32 -14t-32 14t-13 34t13 34t32 14z" />
<glyph unicode="&#xa9;" horiz-adv-x="688" d="M466 139q-53 -23 -113 -23q-87 0 -138.5 48.5t-52.5 134.5q0 86 52.5 133.5t138.5 47.5q64 0 113 -21v-60q-28 19 -49 25.5t-59 6.5q-64 0 -99 -35t-35 -97q0 -65 36.5 -99.5t102.5 -34.5q52 0 103 31v-57zM607 299q0 107 -71.5 180.5t-192.5 76.5q-103 0 -183.5 -72 t-80.5 -184q0 -104 75 -180.5t189 -76.5q109 0 186.5 73.5t77.5 182.5zM648 299q0 -123 -84 -211t-221 -88q-123 0 -214 82.5t-91 216.5q0 121 84.5 210t220.5 89t220.5 -88.5t84.5 -210.5z" />
<glyph unicode="&#xaa;" horiz-adv-x="410" d="M285 433v10h-55h-10q-24 0 -40 -1.5t-36 -6.5t-30 -17.5t-10 -31.5q0 -28 23.5 -41.5t56.5 -13.5q47 0 74 28t27 74zM347 189h-290v53h290v-53zM345 288h-60v39q-18 -19 -54 -32.5t-67 -13.5q-50 0 -82 26t-33 74q0 111 158 111h78v1q0 72 -101 72q-27 0 -58 -7 q-26 -9 -54 -24v57q22 7 62 15q30 6 59 6q152 0 152 -143v-181z" />
<glyph unicode="&#xab;" horiz-adv-x="455" d="M219 57l-193 168v32l193 169v-80l-126 -104l126 -105v-80zM401 57l-193 168v32l193 169v-80l-126 -104l126 -105v-80z" />
<glyph unicode="&#xac;" horiz-adv-x="630" d="M561 115h-68v161h-461v71h529v-232z" />
<glyph unicode="&#xad;" horiz-adv-x="366" d="M297 193h-228v66h228v-66z" />
<glyph unicode="&#xae;" horiz-adv-x="687" d="M418 375q0 33 -22 43.5t-64 11.5h-53v-109h53q41 0 63.5 10.5t22.5 43.5zM513 134h-73l-51 86q-16 25 -23 34t-20.5 16t-36.5 8h-30v-144h-61v338h117q67 0 104 -21t37 -76q0 -65 -73 -88q6 -4 15 -17l20 -26q11 -15 13 -17zM605 300q0 107 -70.5 180t-191.5 76 q-103 0 -180.5 -72t-77.5 -184q0 -105 73 -181t185 -76q108 0 185 68t77 189zM648 299q0 -124 -90.5 -211.5t-214.5 -87.5q-137 0 -221 88.5t-84 210.5q0 131 92 215t213 84t213 -84t92 -215z" />
<glyph unicode="&#xaf;" horiz-adv-x="390" d="M321 555h-252v59h252v-59z" />
<glyph unicode="&#xb0;" horiz-adv-x="328" d="M162 561q-25 0 -43 -18t-18 -44t18 -44t43 -18t43 18t18 44t-18 44t-43 18zM162 612q46 0 79 -33t33 -79t-33 -79t-79 -33t-79 33t-33 79t33 79t79 33z" />
<glyph unicode="&#xb1;" horiz-adv-x="595" d="M562 0h-529v72h529v-72zM562 291h-231v-155h-67v155h-231v72h231v154h67v-154h231v-72z" />
<glyph unicode="&#xb2;" horiz-adv-x="264" d="M18 350q10 11 123 162q40 50 40 76q0 28 -20 45t-50 17q-44 0 -91 -27v40q54 43 100 43q52 0 85 -24t33 -68q0 -49 -22 -81l-98 -125h125v-58h-225z" />
<glyph unicode="&#xb3;" horiz-adv-x="262" d="M236 448q0 -55 -38.5 -82t-100.5 -27q-47 0 -75 26v49l10 -5q7 -3 9.5 -4.5t8.5 -3.5t10.5 -3t11.5 -1.5t16 -0.5q90 0 90 56q0 53 -82 53h-17v56h17q69 0 70 44q0 45 -71 45q-15 0 -23.5 -1.5t-21.5 -5.5t-19 -6v46q50 23 77 23q49 0 82.5 -23t33.5 -67 q0 -28 -21.5 -48.5t-59.5 -31.5q45 -10 69 -33.5t24 -54.5z" />
<glyph unicode="&#xb4;" horiz-adv-x="278" d="M244 660l-147 -152h-66l125 152h88z" />
<glyph unicode="&#xb5;" horiz-adv-x="538" d="M516 6q-26 -18 -61 -18q-26 0 -44 16.5t-26 42.5q-48 -59 -121 -59q-36 0 -69.5 16t-51.5 39v-215h-74v623h74v-280q0 -118 115 -118q126 0 126 134v264h71v-347q0 -46 33 -46h8q2 0 5 1t3.5 2t4 5t7.5 8v-68z" />
<glyph unicode="&#xb6;" horiz-adv-x="478" d="M409 -80h-58v629h-82v-629h-57v340q-89 7 -139 51q-48 47 -48 120q0 77 54 123q53 47 143 47h187v-681z" />
<glyph unicode="&#xb7;" horiz-adv-x="210" d="M102 334q18 0 31 -14.5t13 -32.5t-13 -32.5t-31 -14.5t-31 14.5t-13 32.5t13 32.5t31 14.5z" />
<glyph unicode="&#xb8;" horiz-adv-x="276" d="M221 -104q0 -39 -29 -59t-74 -22q-33 0 -48.5 7t-37.5 27l27 37q27 -24 55 -24q50 0 50 40q0 13 -22 36.5t-22 35.5v44h52v-44q0 -10 24.5 -36t24.5 -42z" />
<glyph unicode="&#xb9;" horiz-adv-x="166" d="M128 350h-62v300l-27 -32l-25 29l48 49h66v-346z" />
<glyph unicode="&#xba;" horiz-adv-x="422" d="M313 447q0 52 -26.5 85t-75.5 33t-76.5 -33.5t-27.5 -84.5t28 -84t76 -33q46 0 74 33t28 84zM356 189h-292v53h292v-53zM370 447q0 -77 -41 -121.5t-118 -44.5t-119.5 44.5t-42.5 121.5q0 78 42.5 121.5t119.5 43.5t117 -44t42 -121z" />
<glyph unicode="&#xbb;" horiz-adv-x="453" d="M245 225l-193 -168v80l126 105l-126 104v80l193 -169v-32zM427 225l-194 -168v80l127 105l-127 104v80l194 -169v-32z" />
<glyph unicode="&#xbc;" horiz-adv-x="751" d="M128 350h-62v300l-27 -32l-25 29l48 49h66v-346zM602 133v122l-90 -122h90zM708 76h-46v-76h-60v76h-148v24l177 246h31v-213h46v-57zM577 704l-405 -718h-66l404 718h67z" />
<glyph unicode="&#xbd;" horiz-adv-x="716" d="M128 350h-62v300l-27 -32l-25 29l48 49h66v-346zM441 0q10 11 123 162q40 50 40 76q0 28 -20 45t-50 17q-44 0 -91 -27v40q54 43 100 43q52 0 85 -24t33 -68q0 -49 -22 -81l-98 -125h125v-58h-225zM537 704l-405 -718h-66l404 718h67z" />
<glyph unicode="&#xbe;" horiz-adv-x="773" d="M264 448q0 -55 -38.5 -82t-100.5 -27q-47 0 -75 26v49l10 -5q7 -3 9.5 -4.5t8.5 -3.5t10.5 -3t11.5 -1.5t16 -0.5q90 0 90 56q0 53 -82 53h-17v56h17q69 0 70 44q0 45 -71 45q-15 0 -23.5 -1.5t-21.5 -5.5t-19 -6v46q50 23 77 23q49 0 82.5 -23t33.5 -67 q0 -28 -21.5 -48.5t-59.5 -31.5q45 -10 69 -33.5t24 -54.5zM617 133v122l-90 -122h90zM723 76h-46v-76h-60v76h-148v24l177 246h31v-213h46v-57zM636 704l-402 -718h-67l404 718h65z" />
<glyph unicode="&#xbf;" horiz-adv-x="382" d="M220 694q18 0 31 -14.5t13 -32.5t-13 -32.5t-31 -14.5t-31 14.5t-13 32.5t13 32.5t31 14.5zM365 37q-80 -51 -165 -51q-78 0 -125 42t-47 119q0 42 16.5 70t52.5 66l38 40q23 21 33 38t17 48q-1 10 -1 40v54h69v-69q0 -49 -14 -79t-49 -65l-79 -89q-12 -26 -12 -50 q0 -47 33 -71q32 -27 83 -27q75 0 150 66v-82z" />
<glyph unicode="&#xc0;" horiz-adv-x="655" d="M434 764h-66l-148 152h88zM468 252l-139 356l-142 -356h281zM647 0h-88l-64 180h-335l-65 -180h-87l269 692h99z" />
<glyph unicode="&#xc1;" horiz-adv-x="655" d="M434 916l-147 -152h-66l125 152h88zM468 252l-139 356l-142 -356h281zM647 0h-88l-64 180h-335l-65 -180h-87l269 692h99z" />
<glyph unicode="&#xc2;" horiz-adv-x="655" d="M466 764h-58l-80 96l-80 -96h-58l108 152h60zM468 252l-139 356l-142 -356h281zM647 0h-88l-64 180h-335l-65 -180h-87l269 692h99z" />
<glyph unicode="&#xc3;" horiz-adv-x="655" d="M464 878q0 -45 -20.5 -79t-59.5 -35q-22 0 -56 24l-54 38q-8 0 -13.5 -1.5t-9 -5.5t-5.5 -7t-3 -10t-1.5 -11t-1 -13.5t-0.5 -13.5h-48q0 45 19.5 79.5t58.5 34.5q30 0 56 -24l54 -38q21 0 27.5 16.5t6.5 45.5h50zM468 252l-139 356l-142 -356h281zM647 0h-88l-64 180 h-335l-65 -180h-87l269 692h99z" />
<glyph unicode="&#xc4;" horiz-adv-x="655" d="M410 860q19 0 32 -14t13 -34t-13 -34t-32 -14t-32 14t-13 34t13 34t32 14zM245 860q19 0 32 -14t13 -34t-13 -34t-32 -14t-32 14t-13 34t13 34t32 14zM468 252l-139 356l-142 -356h281zM647 0h-88l-64 180h-335l-65 -180h-87l269 692h99z" />
<glyph unicode="&#xc5;" horiz-adv-x="655" d="M330 882q-26 0 -44 -18t-18 -44t18 -44t44 -18q25 0 42.5 18t17.5 44t-17.5 44t-42.5 18zM330 933q46 0 79 -32.5t33 -79.5t-33 -79.5t-79 -32.5t-79 32.5t-33 79.5t33 79.5t79 32.5zM468 252l-139 356l-142 -356h281zM647 0h-88l-64 180h-335l-65 -180h-87l269 692h99z " />
<glyph unicode="&#xc6;" horiz-adv-x="893" d="M431 251v374h-74l-159 -374h233zM867 0h-436v180h-265l-76 -180h-84l295 692h558v-73h-353v-215h339v-72h-339v-260h361v-72z" />
<glyph unicode="&#xc7;" horiz-adv-x="628" d="M448 -121q0 -39 -29 -59t-74 -22q-33 0 -48.5 7t-37.5 27l27 36q27 -23 56 -23q50 0 50 40q0 13 -22.5 36.5t-22.5 35.5v30q-149 10 -227 108.5t-78 248.5q0 159 85.5 259.5t250.5 100.5q120 0 218 -64v-94q-44 47 -95 68.5t-121 21.5q-71 0 -122.5 -22.5t-81.5 -63.5 t-44.5 -92t-15.5 -114q0 -131 64.5 -210.5t199.5 -79.5q69 0 119.5 21t96.5 67v-91q-82 -58 -196 -64v-30q0 -10 24 -36.5t24 -41.5z" />
<glyph unicode="&#xc8;" horiz-adv-x="536" d="M397 764h-66l-148 152h87zM511 0h-442v692h433v-73h-358v-215h342v-72h-342v-260h367v-72z" />
<glyph unicode="&#xc9;" horiz-adv-x="536" d="M396 916l-146 -152h-66l124 152h88zM511 0h-442v692h433v-73h-358v-215h342v-72h-342v-260h367v-72z" />
<glyph unicode="&#xca;" horiz-adv-x="536" d="M428 764h-58l-80 96l-80 -96h-58l108 152h60zM511 0h-442v692h433v-73h-358v-215h342v-72h-342v-260h367v-72z" />
<glyph unicode="&#xcb;" horiz-adv-x="536" d="M372 860q19 0 32.5 -14t13.5 -34t-13.5 -34t-32.5 -14q-18 0 -31 14t-13 34t13 34t31 14zM208 860q18 0 31 -14t13 -34t-13 -34t-31 -14q-19 0 -32.5 14t-13.5 34t13.5 34t32.5 14zM511 0h-442v692h433v-73h-358v-215h342v-72h-342v-260h367v-72z" />
<glyph unicode="&#xcc;" horiz-adv-x="213" d="M214 764h-66l-148 152h86zM144 0h-75v692h75v-692z" />
<glyph unicode="&#xcd;" horiz-adv-x="213" d="M213 916l-147 -152h-66l125 152h88zM144 0h-75v692h75v-692z" />
<glyph unicode="&#xce;" horiz-adv-x="213" d="M244 764h-58l-80 96l-80 -96h-58l108 152h60zM144 0h-75v692h75v-692z" />
<glyph unicode="&#xcf;" horiz-adv-x="213" d="M189 860q19 0 32 -14t13 -34t-13 -34t-32 -14t-32 14t-13 34t13 34t32 14zM24 860q19 0 32 -14t13 -34t-13 -34t-32 -14t-32 14t-13 34t13 34t32 14zM144 0h-75v692h75v-692z" />
<glyph unicode="&#xd0;" horiz-adv-x="726" d="M608 347q0 145 -70 209.5t-226 66.5h-124v-235h162v-61h-162v-258h124q155 0 225.5 67.5t70.5 210.5zM683 346q0 -181 -94.5 -263.5t-288.5 -82.5h-186v327h-97v61h97v304h186q195 0 288.5 -82.5t94.5 -263.5z" />
<glyph unicode="&#xd1;" horiz-adv-x="651" d="M462 878q0 -45 -20.5 -79t-59.5 -35q-22 0 -56 24l-54 38q-8 0 -13.5 -1.5t-9 -5.5t-5.5 -7t-3 -10t-1.5 -11t-1 -13.5t-0.5 -13.5h-48q0 45 19.5 79.5t58.5 34.5q30 0 56 -24l54 -38q21 0 27.5 16.5t6.5 45.5h50zM582 0h-81l-358 557v-557h-74v692h71l367 -558v558h75 v-692z" />
<glyph unicode="&#xd2;" horiz-adv-x="715" d="M463 764h-66l-148 152h87zM597 344q0 57 -13 107t-40.5 92.5t-76 67.5t-112.5 25q-63 0 -111 -25t-75.5 -68t-40.5 -93t-13 -106q0 -54 13.5 -104t41 -93t75.5 -68.5t110 -25.5q63 0 111 25t76 68t41.5 93t13.5 105zM671 344q0 -99 -32 -177.5t-105 -129.5t-179 -51 q-79 0 -140.5 29.5t-98.5 80t-56 113.5t-19 135q0 96 32 175.5t105 132t177 52.5q106 0 179 -51.5t105 -130.5t32 -178z" />
<glyph unicode="&#xd3;" horiz-adv-x="715" d="M462 916l-146 -152h-66l124 152h88zM597 344q0 57 -13 107t-40.5 92.5t-76 67.5t-112.5 25q-63 0 -111 -25t-75.5 -68t-40.5 -93t-13 -106q0 -54 13.5 -104t41 -93t75.5 -68.5t110 -25.5q63 0 111 25t76 68t41.5 93t13.5 105zM671 344q0 -99 -32 -177.5t-105 -129.5 t-179 -51q-79 0 -140.5 29.5t-98.5 80t-56 113.5t-19 135q0 96 32 175.5t105 132t177 52.5q106 0 179 -51.5t105 -130.5t32 -178z" />
<glyph unicode="&#xd4;" horiz-adv-x="715" d="M494 764h-58l-80 96l-80 -96h-58l108 152h60zM597 344q0 57 -13 107t-40.5 92.5t-76 67.5t-112.5 25q-63 0 -111 -25t-75.5 -68t-40.5 -93t-13 -106q0 -54 13.5 -104t41 -93t75.5 -68.5t110 -25.5q63 0 111 25t76 68t41.5 93t13.5 105zM671 344q0 -99 -32 -177.5 t-105 -129.5t-179 -51q-79 0 -140.5 29.5t-98.5 80t-56 113.5t-19 135q0 96 32 175.5t105 132t177 52.5q106 0 179 -51.5t105 -130.5t32 -178z" />
<glyph unicode="&#xd5;" horiz-adv-x="715" d="M492 878q0 -45 -20.5 -79t-59.5 -35q-24 0 -55 24l-54 38q-6 0 -10.5 -1t-8 -3.5t-6 -4t-4 -6.5t-2.5 -7.5t-1.5 -9t-1 -9t-0.5 -10.5v-11h-49q0 45 20 79.5t59 34.5q31 0 55 -24l55 -38q15 0 23 10.5t9 21t2 30.5h49zM597 344q0 57 -13 107t-40.5 92.5t-76 67.5 t-112.5 25q-63 0 -111 -25t-75.5 -68t-40.5 -93t-13 -106q0 -54 13.5 -104t41 -93t75.5 -68.5t110 -25.5q63 0 111 25t76 68t41.5 93t13.5 105zM671 344q0 -99 -32 -177.5t-105 -129.5t-179 -51q-79 0 -140.5 29.5t-98.5 80t-56 113.5t-19 135q0 96 32 175.5t105 132 t177 52.5q106 0 179 -51.5t105 -130.5t32 -178z" />
<glyph unicode="&#xd6;" horiz-adv-x="715" d="M438 860q19 0 32.5 -14t13.5 -34t-13.5 -34t-32.5 -14q-18 0 -31 14t-13 34t13 34t31 14zM274 860q18 0 31 -14t13 -34t-13 -34t-31 -14q-19 0 -32.5 14t-13.5 34t13.5 34t32.5 14zM597 344q0 57 -13 107t-40.5 92.5t-76 67.5t-112.5 25q-63 0 -111 -25t-75.5 -68 t-40.5 -93t-13 -106q0 -54 13.5 -104t41 -93t75.5 -68.5t110 -25.5q63 0 111 25t76 68t41.5 93t13.5 105zM671 344q0 -99 -32 -177.5t-105 -129.5t-179 -51q-79 0 -140.5 29.5t-98.5 80t-56 113.5t-19 135q0 96 32 175.5t105 132t177 52.5q106 0 179 -51.5t105 -130.5 t32 -178z" />
<glyph unicode="&#xd7;" horiz-adv-x="527" d="M497 446l-191 -188l190 -187l-40 -46l-194 189l-192 -189l-40 46l192 187l-192 188l40 46l192 -189l194 189z" />
<glyph unicode="&#xd8;" horiz-adv-x="728" d="M603 344q0 103 -44 179l-358 -403q40 -36 75 -51t88 -15q64 0 111.5 24.5t74.5 67t40 92.5t13 106zM528 572q-72 64 -164 64q-64 0 -112 -25t-75.5 -67.5t-40.5 -92.5t-13 -107q0 -59 9.5 -99t36.5 -78zM684 686l-74 -94q64 -91 68 -248q0 -99 -33 -177.5t-106 -129 t-178 -50.5q-119 0 -210 72l-73 -91l-36 36l77 96q-71 83 -71 244q0 73 19 136.5t57 113.5t100.5 79t142.5 29q128 0 208 -71l74 91z" />
<glyph unicode="&#xd9;" horiz-adv-x="646" d="M430 764h-66l-148 152h87zM583 258q0 -129 -62.5 -200.5t-195.5 -71.5t-197.5 71t-64.5 201v434h75v-422q0 -108 39.5 -162.5t147.5 -54.5q106 0 145 55t39 162v422h74v-434z" />
<glyph unicode="&#xda;" horiz-adv-x="646" d="M430 916l-148 -152h-66l126 152h88zM583 258q0 -129 -62.5 -200.5t-195.5 -71.5t-197.5 71t-64.5 201v434h75v-422q0 -108 39.5 -162.5t147.5 -54.5q106 0 145 55t39 162v422h74v-434z" />
<glyph unicode="&#xdb;" horiz-adv-x="646" d="M461 764h-58l-80 96l-80 -96h-58l108 152h60zM583 258q0 -129 -62.5 -200.5t-195.5 -71.5t-197.5 71t-64.5 201v434h75v-422q0 -108 39.5 -162.5t147.5 -54.5q106 0 145 55t39 162v422h74v-434z" />
<glyph unicode="&#xdc;" horiz-adv-x="646" d="M406 860q18 0 31 -14t13 -34t-13 -34t-31 -14q-19 0 -32.5 14t-13.5 34t13.5 34t32.5 14zM240 860q19 0 32.5 -14t13.5 -34t-13.5 -34t-32.5 -14q-18 0 -31 14t-13 34t13 34t31 14zM583 258q0 -129 -62.5 -200.5t-195.5 -71.5t-197.5 71t-64.5 201v434h75v-422 q0 -108 39.5 -162.5t147.5 -54.5q106 0 145 55t39 162v422h74v-434z" />
<glyph unicode="&#xdd;" horiz-adv-x="579" d="M396 916l-146 -152h-66l124 152h88zM580 692l-253 -362v-330h-75v330l-252 362h90l200 -291l200 291h90z" />
<glyph unicode="&#xde;" horiz-adv-x="534" d="M429 363q0 65 -42 99q-40 35 -111 35h-132v-269h132q73 0 111 34q40 32 42 101zM504 364q0 -104 -56 -154q-58 -51 -172 -53h-132v-157h-75v692h75v-126h129q115 0 174 -51q57 -48 57 -151z" />
<glyph unicode="&#xdf;" horiz-adv-x="546" d="M508 151q0 -165 -189 -165q-48 0 -119 23v80l25 -11q16 -7 20 -8.5t13.5 -4.5t17.5 -3.5t19.5 -1.5t30.5 -2q107 0 107 87q0 9 -1 16.5t-4.5 14.5t-5 12t-8 11.5t-8.5 9t-11.5 9.5t-10.5 7.5t-13 8.5l-12 8l-39 24q-40 27 -59 56t-19 76q0 67 34.5 102t103.5 51 q-10 98 -114 98q-118 0 -121 -124v-526h-76v527q0 93 52.5 143t146.5 52q94 0 140.5 -57.5t48.5 -155.5q-60 -4 -102 -27.5t-42 -73.5q0 -21 17.5 -43.5t38.5 -34.5l26 -18q62 -41 87.5 -73t25.5 -87z" />
<glyph unicode="&#xe0;" d="M324 522h-66l-148 152h87zM346 178v8q-8 17 -35.5 30.5t-58.5 13.5q-140 0 -142 -93q0 -43 28 -64.5t72 -21.5q62 1 99 31.5t37 95.5zM472 68q-2 -31 -21 -54t-51 -26q-24 2 -39 20.5t-15 50.5q-55 -71 -157 -71q-69 0 -107 37.5t-40 106.5q0 82 55.5 117.5t144.5 35.5 q57 0 104 -30v29q-1 63 -34 89.5t-94 26.5q-86 0 -145 -58v74q29 21 71.5 33.5t80.5 12.5q190 0 190 -177v-199v-3q0 -27 23 -32h3q17 0 31 17z" />
<glyph unicode="&#xe1;" d="M378 674l-146 -152h-66l124 152h88zM346 178v8q-8 17 -35.5 30.5t-58.5 13.5q-140 0 -142 -93q0 -43 28 -64.5t72 -21.5q62 1 99 31.5t37 95.5zM472 68q-2 -31 -21 -54t-51 -26q-24 2 -39 20.5t-15 50.5q-55 -71 -157 -71q-69 0 -107 37.5t-40 106.5q0 82 55.5 117.5 t144.5 35.5q57 0 104 -30v29q-1 63 -34 89.5t-94 26.5q-86 0 -145 -58v74q29 21 71.5 33.5t80.5 12.5q190 0 190 -177v-199v-3q0 -27 23 -32h3q17 0 31 17z" />
<glyph unicode="&#xe2;" d="M395 522h-58l-80 96l-80 -96h-58l108 152h60zM346 178v8q-8 17 -35.5 30.5t-58.5 13.5q-140 0 -142 -93q0 -43 28 -64.5t72 -21.5q62 1 99 31.5t37 95.5zM472 68q-2 -31 -21 -54t-51 -26q-24 2 -39 20.5t-15 50.5q-55 -71 -157 -71q-69 0 -107 37.5t-40 106.5 q0 82 55.5 117.5t144.5 35.5q57 0 104 -30v29q-1 63 -34 89.5t-94 26.5q-86 0 -145 -58v74q29 21 71.5 33.5t80.5 12.5q190 0 190 -177v-199v-3q0 -27 23 -32h3q17 0 31 17z" />
<glyph unicode="&#xe3;" d="M393 636q0 -45 -20.5 -79t-59.5 -35q-24 0 -55 24l-54 38q-6 0 -10.5 -1t-8 -3.5t-6 -4t-4 -6.5t-2.5 -7.5t-1.5 -9t-1 -9t-0.5 -10.5v-11h-49q0 45 20 79.5t59 34.5q31 0 55 -24l55 -38q15 0 23 10.5t9 21t2 30.5h49zM346 178v8q-8 17 -35.5 30.5t-58.5 13.5 q-140 0 -142 -93q0 -43 28 -64.5t72 -21.5q62 1 99 31.5t37 95.5zM472 68q-2 -31 -21 -54t-51 -26q-24 2 -39 20.5t-15 50.5q-55 -71 -157 -71q-69 0 -107 37.5t-40 106.5q0 82 55.5 117.5t144.5 35.5q57 0 104 -30v29q-1 63 -34 89.5t-94 26.5q-86 0 -145 -58v74 q29 21 71.5 33.5t80.5 12.5q190 0 190 -177v-199v-3q0 -27 23 -32h3q17 0 31 17z" />
<glyph unicode="&#xe4;" d="M340 618q18 0 31 -14t13 -34t-13 -34t-31 -14q-19 0 -32.5 14t-13.5 34t13.5 34t32.5 14zM174 618q19 0 32.5 -14t13.5 -34t-13.5 -34t-32.5 -14q-18 0 -31 14t-13 34t13 34t31 14zM346 178v8q-8 17 -35.5 30.5t-58.5 13.5q-140 0 -142 -93q0 -43 28 -64.5t72 -21.5 q62 1 99 31.5t37 95.5zM472 68q-2 -31 -21 -54t-51 -26q-24 2 -39 20.5t-15 50.5q-55 -71 -157 -71q-69 0 -107 37.5t-40 106.5q0 82 55.5 117.5t144.5 35.5q57 0 104 -30v29q-1 63 -34 89.5t-94 26.5q-86 0 -145 -58v74q29 21 71.5 33.5t80.5 12.5q190 0 190 -177v-199v-3 q0 -27 23 -32h3q17 0 31 17z" />
<glyph unicode="&#xe5;" d="M257 695q-25 0 -43 -18t-18 -44t18 -44t43 -18t43 18t18 44t-18 44t-43 18zM257 746q47 0 79.5 -33t32.5 -79t-32.5 -79t-79.5 -33t-79.5 33t-32.5 79t32.5 79t79.5 33zM346 178v8q-8 17 -35.5 30.5t-58.5 13.5q-140 0 -142 -93q0 -43 28 -64.5t72 -21.5q62 1 99 31.5 t37 95.5zM472 68q-2 -31 -21 -54t-51 -26q-24 2 -39 20.5t-15 50.5q-55 -71 -157 -71q-69 0 -107 37.5t-40 106.5q0 82 55.5 117.5t144.5 35.5q57 0 104 -30v29q-1 63 -34 89.5t-94 26.5q-86 0 -145 -58v74q29 21 71.5 33.5t80.5 12.5q190 0 190 -177v-199v-3q0 -27 23 -32 h3q17 0 31 17z" />
<glyph unicode="&#xe6;" horiz-adv-x="788" d="M675 287q0 47 -36 79t-93 32q-54 0 -87.5 -31.5t-40.5 -79.5h257zM345 156q-4 19 -6 40q-12 14 -37 24t-50 10q-140 0 -142 -93q0 -43 28 -64.5t72 -21.5q123 2 135 105zM378 80q-27 -35 -84.5 -63.5t-104.5 -28.5q-69 0 -107 37.5t-40 106.5q0 82 55.5 117.5t144.5 35.5 q52 0 98 -27q6 30 6 32q-5 110 -128 110q-86 0 -145 -58v74q29 21 71.5 33.5t80.5 12.5q124 0 167 -74q58 74 154 74q202 -4 202 -229v-7h-333v-8q0 -79 39 -121t110 -42q61 0 102.5 16.5t81.5 51.5v-75q-29 -28 -83.5 -44t-105.5 -16q-49 0 -103 20t-78 72z" />
<glyph unicode="&#xe7;" horiz-adv-x="442" d="M342 -121q0 -39 -29.5 -59t-74.5 -22q-32 0 -47.5 6.5t-38.5 27.5l28 36q27 -23 55 -23q50 0 50 40q0 13 -22.5 36.5t-22.5 35.5v33q-92 10 -142 73t-52 162q0 109 62 173t171 64q48 0 127 -27v-75q-7 3 -19.5 9.5l-16.5 8.5l-14 6q-10 4 -15.5 5.5t-15 3.5t-19.5 3 t-23 2q-79 0 -120.5 -46.5t-41.5 -126.5q0 -82 40.5 -127t121.5 -46q19 0 31.5 1t25.5 5.5t18.5 7t22.5 11.5l25 13v-74q-71 -25 -114 -27l1 -32q0 -10 24.5 -36t24.5 -42z" />
<glyph unicode="&#xe8;" horiz-adv-x="496" d="M336 522h-66l-148 152h87zM383 287q0 47 -36 79t-93 32q-54 0 -87.5 -31.5t-40.5 -79.5h257zM456 226h-333v-8q0 -79 39 -121t110 -42q61 0 102.5 16.5t81.5 51.5v-75q-29 -28 -83.5 -44t-105.5 -16q-102 0 -161.5 64.5t-59.5 168.5q0 99 56 170t152 71q202 -4 202 -229 v-7z" />
<glyph unicode="&#xe9;" horiz-adv-x="496" d="M384 674l-146 -152h-66l124 152h88zM383 287q0 47 -36 79t-93 32q-54 0 -87.5 -31.5t-40.5 -79.5h257zM456 226h-333v-8q0 -79 39 -121t110 -42q61 0 102.5 16.5t81.5 51.5v-75q-29 -28 -83.5 -44t-105.5 -16q-102 0 -161.5 64.5t-59.5 168.5q0 99 56 170t152 71 q202 -4 202 -229v-7z" />
<glyph unicode="&#xea;" horiz-adv-x="496" d="M389 522h-58l-80 96l-80 -96h-58l108 152h60zM383 287q0 47 -36 79t-93 32q-54 0 -87.5 -31.5t-40.5 -79.5h257zM456 226h-333v-8q0 -79 39 -121t110 -42q61 0 102.5 16.5t81.5 51.5v-75q-29 -28 -83.5 -44t-105.5 -16q-102 0 -161.5 64.5t-59.5 168.5q0 99 56 170 t152 71q202 -4 202 -229v-7z" />
<glyph unicode="&#xeb;" horiz-adv-x="496" d="M334 618q18 0 31 -14t13 -34t-13 -34t-31 -14q-19 0 -32.5 14t-13.5 34t13.5 34t32.5 14zM168 618q19 0 32.5 -14t13.5 -34t-13.5 -34t-32.5 -14q-18 0 -31 14t-13 34t13 34t31 14zM383 287q0 47 -36 79t-93 32q-54 0 -87.5 -31.5t-40.5 -79.5h257zM456 226h-333v-8 q0 -79 39 -121t110 -42q61 0 102.5 16.5t81.5 51.5v-75q-29 -28 -83.5 -44t-105.5 -16q-102 0 -161.5 64.5t-59.5 168.5q0 99 56 170t152 71q202 -4 202 -229v-7z" />
<glyph unicode="&#xec;" horiz-adv-x="212" d="M213 522h-66l-148 152h87zM143 0h-74v451h74v-451z" />
<glyph unicode="&#xed;" horiz-adv-x="212" d="M212 674l-146 -152h-66l124 152h88zM143 0h-74v451h74v-451z" />
<glyph unicode="&#xee;" horiz-adv-x="212" d="M244 522h-58l-80 96l-80 -96h-58l108 152h60zM143 0h-74v451h74v-451z" />
<glyph unicode="&#xef;" horiz-adv-x="212" d="M188 618q19 0 32.5 -14t13.5 -34t-13.5 -34t-32.5 -14q-18 0 -31 14t-13 34t13 34t31 14zM24 618q18 0 31 -14t13 -34t-13 -34t-31 -14q-19 0 -32.5 14t-13.5 34t13.5 34t32.5 14zM143 0h-74v451h74v-451z" />
<glyph unicode="&#xf0;" horiz-adv-x="520" d="M396 215q0 96 -47 152q-30 8 -78 14q-76 0 -113.5 -43.5t-37.5 -122.5q0 -74 34 -116.5t104 -42.5q69 0 103.5 43t34.5 116zM471 215q0 -103 -56 -165t-157 -62q-99 0 -156.5 63t-57.5 164q0 95 57 160.5t149 65.5q6 0 17.5 -0.5t27.5 -0.5l-63 67l-135 -42l-13 43 l116 37l-79 82h98l54 -59l141 47l14 -44l-124 -40l66 -71q101 -110 101 -245z" />
<glyph unicode="&#xf1;" horiz-adv-x="521" d="M400 636q0 -45 -20.5 -79t-59.5 -35q-22 0 -56 24l-54 38q-8 0 -13.5 -1.5t-9 -5.5t-5.5 -7t-3 -10t-1.5 -11t-1 -13.5t-0.5 -13.5h-48q0 45 19.5 79.5t58.5 34.5q30 0 56 -24l54 -38q21 0 27.5 16.5t6.5 45.5h50zM458 0h-73v270q0 63 -24.5 94.5t-81.5 31.5 q-60 0 -97.5 -38.5t-38.5 -102.5v-255h-74v452h74v-62q52 72 154 72q82 0 121.5 -52t39.5 -138v-272z" />
<glyph unicode="&#xf2;" horiz-adv-x="519" d="M365 522h-66l-148 152h87zM397 225q-1 69 -38.5 119t-100.5 51q-67 -1 -102 -48t-35 -119q0 -29 6 -56t20 -54.5t42.5 -44t68.5 -17.5q61 0 99.5 50t39.5 119zM471 225q-1 -100 -58 -168t-155 -69q-95 1 -153.5 71t-59.5 166q1 103 57.5 170t155.5 67q105 0 159 -70 t54 -167z" />
<glyph unicode="&#xf3;" horiz-adv-x="519" d="M364 674l-146 -152h-66l124 152h88zM397 225q-1 69 -38.5 119t-100.5 51q-67 -1 -102 -48t-35 -119q0 -29 6 -56t20 -54.5t42.5 -44t68.5 -17.5q61 0 99.5 50t39.5 119zM471 225q-1 -100 -58 -168t-155 -69q-95 1 -153.5 71t-59.5 166q1 103 57.5 170t155.5 67 q105 0 159 -70t54 -167z" />
<glyph unicode="&#xf4;" horiz-adv-x="519" d="M396 522h-58l-80 96l-80 -96h-58l108 152h60zM397 225q-1 69 -38.5 119t-100.5 51q-67 -1 -102 -48t-35 -119q0 -29 6 -56t20 -54.5t42.5 -44t68.5 -17.5q61 0 99.5 50t39.5 119zM471 225q-1 -100 -58 -168t-155 -69q-95 1 -153.5 71t-59.5 166q1 103 57.5 170t155.5 67 q105 0 159 -70t54 -167z" />
<glyph unicode="&#xf5;" horiz-adv-x="519" d="M394 636q0 -45 -20.5 -79t-59.5 -35q-24 0 -55 24l-54 38q-6 0 -10.5 -1t-8 -3.5t-6 -4t-4 -6.5t-2.5 -7.5t-1.5 -9t-1 -9t-0.5 -10.5v-11h-49q0 45 20 79.5t59 34.5q31 0 55 -24l55 -38q15 0 23 10.5t9 21t2 30.5h49zM397 225q-1 69 -38.5 119t-100.5 51 q-67 -1 -102 -48t-35 -119q0 -29 6 -56t20 -54.5t42.5 -44t68.5 -17.5q61 0 99.5 50t39.5 119zM471 225q-1 -100 -58 -168t-155 -69q-95 1 -153.5 71t-59.5 166q1 103 57.5 170t155.5 67q105 0 159 -70t54 -167z" />
<glyph unicode="&#xf6;" horiz-adv-x="519" d="M340 618q19 0 32.5 -14t13.5 -34t-13.5 -34t-32.5 -14q-18 0 -31 14t-13 34t13 34t31 14zM176 618q18 0 31 -14t13 -34t-13 -34t-31 -14q-19 0 -32.5 14t-13.5 34t13.5 34t32.5 14zM397 225q-1 69 -38.5 119t-100.5 51q-67 -1 -102 -48t-35 -119q0 -29 6 -56t20 -54.5 t42.5 -44t68.5 -17.5q61 0 99.5 50t39.5 119zM471 225q-1 -100 -58 -168t-155 -69q-95 1 -153.5 71t-59.5 166q1 103 57.5 170t155.5 67q105 0 159 -70t54 -167z" />
<glyph unicode="&#xf7;" horiz-adv-x="471" d="M180 102q0 24 17 41t42 17t42 -17t17 -41t-17 -41t-42 -17t-42 17t-17 41zM180 400q0 24 17 41t42 17t42 -17t17 -41t-17 -41t-42 -17t-42 17t-17 41zM449 224h-427v70h427v-70z" />
<glyph unicode="&#xf8;" horiz-adv-x="537" d="M406 225v6q0 48 -19 83l-205 -228q21 -19 35 -22.5t55 -6.5q62 0 97.5 52t36.5 116zM357 356q-35 38 -85 38h-9q-56 0 -85.5 -32t-48.5 -98q-2 -20 -2 -32q0 -55 20 -104zM502 454l-67 -76q44 -73 44 -152q0 -102 -54 -169.5t-153 -67.5q-69 0 -135 43l-58 -70l-39 35 l63 72q-52 74 -52 156q0 107 59 171t162 64q21 0 35 -1.5t27.5 -6.5t20 -8.5t23 -14t25.5 -15.5l62 74z" />
<glyph unicode="&#xf9;" horiz-adv-x="524" d="M366 522h-66l-148 152h88zM455 0h-77v59q-26 -31 -67 -51t-84 -20q-81 0 -122 53t-41 137v273h73v-271q0 -126 107 -126q66 0 100 38t34 104v255h77v-451z" />
<glyph unicode="&#xfa;" horiz-adv-x="524" d="M366 674l-147 -152h-66l125 152h88zM455 0h-77v59q-26 -31 -67 -51t-84 -20q-81 0 -122 53t-41 137v273h73v-271q0 -126 107 -126q66 0 100 38t34 104v255h77v-451z" />
<glyph unicode="&#xfb;" horiz-adv-x="524" d="M398 522h-58l-80 96l-80 -96h-58l108 152h60zM455 0h-77v59q-26 -31 -67 -51t-84 -20q-81 0 -122 53t-41 137v273h73v-271q0 -126 107 -126q66 0 100 38t34 104v255h77v-451z" />
<glyph unicode="&#xfc;" horiz-adv-x="524" d="M342 618q19 0 32 -14t13 -34t-13 -34t-32 -14t-32 14t-13 34t13 34t32 14zM177 618q19 0 32 -14t13 -34t-13 -34t-32 -14t-32 14t-13 34t13 34t32 14zM455 0h-77v59q-26 -31 -67 -51t-84 -20q-81 0 -122 53t-41 137v273h73v-271q0 -126 107 -126q66 0 100 38t34 104v255 h77v-451z" />
<glyph unicode="&#xfd;" horiz-adv-x="474" d="M378 674l-146 -152h-66l124 152h88zM457 451l-271 -624q-18 -29 -45.5 -48t-55.5 -20l-25 51q17 0 41.5 16.5t33.5 38.5l77 182l-197 404h71l163 -330l139 330h69z" />
<glyph unicode="&#xfe;" horiz-adv-x="557" d="M144 380v-311q42 -17 99 -17q89 1 133.5 46t44.5 127q0 81 -45.5 127t-132.5 46q-58 -3 -99 -18zM69 692h75v-243q50 13 101 13q118 0 184.5 -64t66.5 -173q-2 -108 -66 -172.5t-179 -64.5q-59 0 -109 11v-240h-73v933z" />
<glyph unicode="&#xff;" horiz-adv-x="474" d="M318 618q19 0 32.5 -14t13.5 -34t-13.5 -34t-32.5 -14q-18 0 -31 14t-13 34t13 34t31 14zM154 618q18 0 31 -14t13 -34t-13 -34t-31 -14q-19 0 -32.5 14t-13.5 34t13.5 34t32.5 14zM457 451l-271 -624q-18 -29 -45.5 -48t-55.5 -20l-25 51q17 0 41.5 16.5t33.5 38.5 l77 182l-197 404h71l163 -330l139 330h69z" />
<glyph unicode="&#x152;" horiz-adv-x="957" d="M497 72v548h-68q-157 0 -235.5 -65.5t-79.5 -208.5q0 -142 79 -208t236 -66h68zM935 0h-495q-193 0 -296.5 85.5t-104.5 260.5q0 175 105 260.5t296 85.5h484v-72h-353v-216h338v-72h-338v-260h364v-72z" />
<glyph unicode="&#x153;" horiz-adv-x="846" d="M806 226h-333v-8q0 -79 39 -121t110 -42q61 0 102.5 16.5t81.5 51.5v-75q-29 -28 -83.5 -44t-105.5 -16q-125 0 -185 95q-58 -94 -174 -95q-95 1 -153.5 71t-59.5 166q1 103 57.5 170t155.5 67q118 0 177 -95q58 95 169 95q202 -4 202 -229v-7zM733 287q0 47 -36 79 t-93 32q-54 0 -87.5 -31.5t-40.5 -79.5h257zM396 209v12v17q-4 65 -41 110.5t-97 46.5q-67 -1 -102 -48t-35 -119q0 -29 6 -56t20 -54.5t42.5 -44t68.5 -17.5q57 0 95 44.5t43 108.5z" />
<glyph unicode="&#x178;" horiz-adv-x="579" d="M372 860q19 0 32.5 -14t13.5 -34t-13.5 -34t-32.5 -14q-18 0 -31 14t-13 34t13 34t31 14zM208 860q18 0 31 -14t13 -34t-13 -34t-31 -14q-19 0 -32.5 14t-13.5 34t13.5 34t32.5 14zM580 692l-253 -362v-330h-75v330l-252 362h90l200 -291l200 291h90z" />
<glyph unicode="&#x2c6;" horiz-adv-x="345" d="M310 508h-58l-80 96l-80 -96h-58l108 152h60z" />
<glyph unicode="&#x2dc;" horiz-adv-x="378" d="M319 640q0 -45 -20.5 -79t-59.5 -35q-24 0 -55 24l-54 38q-6 0 -10.5 -1t-8 -3.5t-6 -4t-4 -6.5t-2.5 -7.5t-1.5 -9t-1 -9t-0.5 -10.5v-11h-49q0 45 20 79.5t59 34.5q31 0 55 -24l55 -38q15 0 23 10.5t9 21t2 30.5h49z" />
<glyph unicode="&#x2000;" horiz-adv-x="466" />
<glyph unicode="&#x2001;" horiz-adv-x="933" />
<glyph unicode="&#x2002;" horiz-adv-x="466" />
<glyph unicode="&#x2003;" horiz-adv-x="933" />
<glyph unicode="&#x2004;" horiz-adv-x="311" />
<glyph unicode="&#x2005;" horiz-adv-x="233" />
<glyph unicode="&#x2006;" horiz-adv-x="155" />
<glyph unicode="&#x2007;" horiz-adv-x="155" />
<glyph unicode="&#x2008;" horiz-adv-x="116" />
<glyph unicode="&#x2009;" horiz-adv-x="186" />
<glyph unicode="&#x200a;" horiz-adv-x="51" />
<glyph unicode="&#x2010;" horiz-adv-x="366" d="M297 193h-228v66h228v-66z" />
<glyph unicode="&#x2011;" horiz-adv-x="366" d="M297 193h-228v66h228v-66z" />
<glyph unicode="&#x2013;" d="M69 193v66h362v-66h-362z" />
<glyph unicode="&#x2014;" horiz-adv-x="1000" d="M69 193v66h862v-66h-862z" />
<glyph unicode="&#x2018;" horiz-adv-x="220" d="M53 498v70q1 38 45.5 82.5t83.5 45.5q-21 -13 -33.5 -38.5t-12.5 -52.5q0 -21 7 -38v-69h-90z" />
<glyph unicode="&#x2019;" horiz-adv-x="220" d="M165 692v-70q-1 -38 -45.5 -82.5t-83.5 -45.5q21 13 33.5 38.5t12.5 52.5q0 21 -7 38v69h90z" />
<glyph unicode="&#x201a;" horiz-adv-x="220" d="M164 89v-70q-1 -38 -45.5 -82.5t-83.5 -45.5q21 13 33.5 38.5t12.5 52.5q0 21 -7 38v69h90z" />
<glyph unicode="&#x201c;" horiz-adv-x="387" d="M220 498v70q1 38 45.5 82.5t83.5 45.5q-21 -13 -33.5 -38.5t-12.5 -52.5q0 -21 7 -38v-69h-90zM53 498v70q1 38 45.5 82.5t83.5 45.5q-21 -13 -33.5 -38.5t-12.5 -52.5q0 -21 7 -38v-69h-90z" />
<glyph unicode="&#x201d;" horiz-adv-x="388" d="M333 692v-70q-1 -38 -45.5 -82.5t-83.5 -45.5q21 13 33.5 38.5t12.5 52.5q0 21 -7 38v69h90zM165 692v-70q-1 -38 -45.5 -82.5t-83.5 -45.5q21 13 33.5 38.5t12.5 52.5q0 21 -7 38v69h90z" />
<glyph unicode="&#x201e;" horiz-adv-x="388" d="M332 89v-70q-1 -38 -45.5 -82.5t-83.5 -45.5q21 13 33.5 38.5t12.5 52.5q0 21 -7 38v69h90zM164 89v-70q-1 -38 -45.5 -82.5t-83.5 -45.5q21 13 33.5 38.5t12.5 52.5q0 21 -7 38v69h90z" />
<glyph unicode="&#x2022;" horiz-adv-x="334" d="M164 450q49 0 83 -35t34 -85t-34 -85t-83 -35t-83 35t-34 85t34 85t83 35z" />
<glyph unicode="&#x2026;" horiz-adv-x="699" d="M521 45q0 24 17 41t42 17t42 -17t17 -41t-17 -41t-42 -17t-42 17t-17 41zM288 45q0 24 17 41t42 17t42 -17t17 -41t-17 -41t-42 -17t-42 17t-17 41zM55 45q0 24 17 41t42 17t42 -17t17 -41t-17 -41t-42 -17t-42 17t-17 41z" />
<glyph unicode="&#x202f;" horiz-adv-x="186" />
<glyph unicode="&#x2039;" horiz-adv-x="279" d="M225 57l-200 168v32l200 169v-80l-132 -104l132 -105v-80z" />
<glyph unicode="&#x203a;" horiz-adv-x="276" d="M251 225l-199 -168v80l130 105l-130 104v80l199 -169v-32z" />
<glyph unicode="&#x205f;" horiz-adv-x="233" />
<glyph unicode="&#x20ac;" horiz-adv-x="546" d="M511 51q-73 -65 -155 -65q-107 0 -169.5 70t-81.5 187h-90l22 50h65v104h-87l22 50h68q18 113 82.5 185t168.5 72q40 0 82.5 -18.5t72.5 -45.5v-93q-37 48 -69.5 70t-82.5 22q-79 0 -122 -52t-56 -140h260l-30 -50h-239v-104h196l-21 -50h-166q26 -191 178 -191 q51 0 83 21t69 69v-91z" />
<glyph unicode="&#x2122;" horiz-adv-x="639" d="M242 562h-84v-193h-45v193h-83v39h212v-39zM570 369h-46v182l-82 -111h-19l-85 112v-183h-48v232h69l74 -100l69 100h68v-232z" />
</font>
</defs>
</svg>
